<svg width="1271" height="354" viewBox="0 0 1271 354" fill="none" xmlns="http://www.w3.org/2000/svg">
<path d="M109.029 219.033L2.18848 170.07L111.336 134.367L218.711 170.07L109.029 219.033Z" fill="white" stroke="black" strokeWidth="1.56934" stroke-miterlimit="10"/>
<path d="M109.563 218.845L219.119 170.196C219.172 170.172 219.231 170.167 219.287 170.18C219.343 170.193 219.394 170.224 219.431 170.268C219.468 170.312 219.49 170.367 219.493 170.425C219.496 170.483 219.481 170.54 219.448 170.588L109.893 351L109.563 218.845Z" fill="white" stroke="black" strokeWidth="1.56934" stroke-miterlimit="10"/>
<path d="M108.386 219.63L2 171.639L108.386 350.999V219.63Z" fill="black" stroke="black" strokeWidth="1.56934" stroke-miterlimit="10"/>
<path d="M173.185 90.5671C167.629 90.5671 160.222 90.3317 143.807 89.6098V90.5671C156.989 99.9832 164.632 117.011 164.632 134.509C164.632 177.305 136.384 196.058 110.945 196.058C80.6405 196.058 57.2729 173.209 57.2729 136.423C57.2729 97.4723 81.0956 74.6383 114.884 74.3872H158.543L173.185 90.5671ZM144.23 134.509C144.23 114.782 134.5 92.7171 111.368 92.7171C88.2361 92.7171 79.7773 113.401 79.7773 135.529C79.7773 161.015 92.489 183.347 111.933 183.347C130.436 183.347 144.23 161.015 144.23 134.572V134.509Z" fill="black"/>
<path d="M66.4985 62.6953L111.335 42.6234V0" fill="black"/>
<path d="M156.173 62.914L111.337 42.8421V0.21875" fill="black"/>
<path d="M361.089 109.939C370.762 109.939 379.507 111.33 387.324 114.112C395.274 116.895 402.032 121.135 407.597 126.833C413.162 132.53 417.402 139.619 420.317 148.099C423.365 156.447 424.888 166.252 424.888 177.514C424.888 193.282 422.04 206.532 416.342 217.265C410.777 227.998 402.893 236.146 392.691 241.711C382.62 247.144 370.695 249.86 356.915 249.86H298.482V235.55L316.966 230.184L313.19 235.948V124.646L317.363 130.41L298.482 125.243V110.932L343.599 109.939H361.089ZM358.306 229.389C362.546 229.389 366.786 228.793 371.027 227.6C375.267 226.275 379.109 223.89 382.554 220.445C386.132 217 388.98 211.965 391.101 205.34C393.221 198.715 394.281 189.97 394.281 179.104C394.281 168.637 393.287 160.223 391.299 153.863C389.312 147.37 386.662 142.468 383.349 139.155C380.037 135.71 376.327 133.391 372.219 132.199C368.244 131.006 364.269 130.41 360.294 130.41H337.239L341.611 126.038V233.761L337.239 229.389H358.306Z" fill="black"/>
<path d="M484.908 252.245C475.236 252.245 466.756 250.258 459.468 246.283C452.181 242.175 446.483 236.146 442.376 228.196C438.4 220.114 436.413 210.309 436.413 198.781C436.413 186.856 438.533 176.653 442.773 168.173C447.146 159.561 453.241 152.935 461.058 148.298C468.876 143.66 478.085 141.342 488.685 141.342C499.02 141.342 507.434 143.395 513.926 147.503C520.419 151.61 525.189 157.242 528.237 164.397C531.284 171.419 532.808 179.369 532.808 188.247C532.808 190.5 532.675 192.752 532.41 195.005C532.278 197.257 532.013 199.642 531.615 202.16H458.872V185.663H507.765L504.187 188.247C504.32 182.947 503.79 178.309 502.597 174.334C501.537 170.227 499.682 167.047 497.032 164.794C494.515 162.542 491.004 161.416 486.499 161.416C481.331 161.416 477.157 162.939 473.977 165.987C470.797 168.902 468.478 172.877 467.021 177.912C465.696 182.947 465.033 188.578 465.033 194.806C465.033 201.828 465.895 208.122 467.617 213.687C469.34 219.252 472.122 223.625 475.965 226.805C479.94 229.985 485.107 231.575 491.467 231.575C495.972 231.575 500.809 230.78 505.976 229.19C511.276 227.468 516.775 224.95 522.473 221.637L531.814 236.544C524.129 241.844 516.245 245.819 508.163 248.469C500.212 250.987 492.461 252.245 484.908 252.245Z" fill="black"/>
<path d="M576.102 145.118C576.102 148.96 577.427 152.14 580.077 154.658C582.727 157.175 586.172 159.362 590.412 161.217C594.652 162.939 599.356 164.662 604.523 166.384C609.691 167.974 614.792 169.829 619.827 171.949C624.862 173.937 629.5 176.521 633.74 179.701C638.112 182.748 641.557 186.657 644.075 191.427C646.725 196.197 648.05 202.16 648.05 209.315C648.05 219.12 645.466 227.203 640.299 233.563C635.264 239.923 628.506 244.693 620.026 247.873C611.546 250.92 602.138 252.444 591.803 252.444C584.78 252.444 577.559 251.715 570.139 250.258C562.851 248.933 555.63 246.879 548.475 244.096L549.469 206.334H565.965L570.139 230.383L567.555 225.613C571.53 227.468 575.704 228.925 580.077 229.985C584.582 230.913 588.954 231.376 593.194 231.376C598.097 231.376 602.602 230.714 606.71 229.389C610.817 228.064 614.063 226.01 616.448 223.227C618.833 220.445 620.026 217 620.026 212.892C620.026 208.785 618.767 205.406 616.25 202.756C613.732 200.106 610.287 197.92 605.915 196.197C601.674 194.342 597.037 192.686 592.002 191.228C586.967 189.638 581.865 187.85 576.698 185.862C571.663 183.875 566.959 181.357 562.587 178.309C558.346 175.262 554.968 171.419 552.45 166.782C549.933 162.012 548.674 156.049 548.674 148.894C548.674 139.487 550.926 131.801 555.431 125.839C559.936 119.744 566.032 115.172 573.717 112.125C581.402 109.077 590.081 107.554 599.753 107.554C606.643 107.554 613.798 108.282 621.218 109.74C628.639 111.197 636.059 113.384 643.479 116.299L641.292 151.08H624.398L620.225 129.416L623.405 132.596C620.092 131.271 616.515 130.278 612.672 129.615C608.962 128.82 605.186 128.423 601.343 128.423C596.838 128.423 592.664 129.019 588.822 130.211C584.979 131.271 581.865 133.06 579.48 135.578C577.228 137.963 576.102 141.143 576.102 145.118Z" fill="black"/>
<path d="M707.82 252.245C698.677 252.245 690.396 250.125 682.976 245.885C675.688 241.513 669.925 235.285 665.685 227.203C661.445 219.12 659.325 209.315 659.325 197.787C659.325 187.32 660.848 178.508 663.896 171.353C666.943 164.198 671.051 158.434 676.218 154.062C681.386 149.557 687.15 146.31 693.51 144.323C699.87 142.335 706.429 141.342 713.186 141.342C719.546 141.342 725.973 142.137 732.465 143.727C738.958 145.317 744.258 147.105 748.366 149.093L747.571 178.309H729.683L726.702 162.012L728.888 163.602C726.9 162.807 724.449 162.211 721.534 161.813C718.751 161.416 716.168 161.217 713.783 161.217C708.085 161.217 703.315 162.674 699.472 165.589C695.762 168.372 692.98 172.413 691.125 177.713C689.27 182.881 688.342 189.042 688.342 196.197C688.342 203.882 689.402 210.375 691.522 215.675C693.642 220.975 696.624 225.016 700.466 227.799C704.441 230.449 709.013 231.774 714.18 231.774C718.288 231.774 722.793 230.913 727.695 229.19C732.598 227.468 737.699 224.884 742.999 221.439L752.341 235.55C744.921 241.248 737.5 245.488 730.08 248.27C722.66 250.92 715.24 252.245 707.82 252.245Z" fill="black"/>
<path d="M798.631 233.563L796.644 231.178L811.948 235.55V249.86H757.49V235.55L772.793 231.178L770.806 233.563V161.018L772.595 162.807L757.49 158.633V144.323L798.631 142.932V233.563ZM783.924 127.429C779.021 127.429 775.046 126.038 771.998 123.255C769.083 120.473 767.626 116.497 767.626 111.33C767.626 105.765 769.15 101.657 772.197 99.0073C775.377 96.2248 779.352 94.8335 784.122 94.8335C788.76 94.8335 792.602 96.2248 795.65 99.0073C798.698 101.657 800.221 105.699 800.221 111.131C800.221 116.564 798.631 120.671 795.451 123.454C792.404 126.104 788.561 127.429 783.924 127.429Z" fill="black"/>
<path d="M936.575 207.725H953.469V249.86H853.894V235.55L871.781 230.383L868.601 235.948V124.646L871.781 130.013L853.894 125.243V110.932L912.923 109.939V124.249L894.042 130.013L897.023 124.646V233.761L892.65 229.389H935.978L932.003 233.96L936.575 207.725Z" fill="black"/>
<path d="M1050.21 235.749L1046.44 230.184L1063.53 235.55V249.662L1028.75 251.45L1024.97 232.37L1026.96 232.966C1021.66 239.459 1015.89 244.295 1009.67 247.475C1003.44 250.655 997.014 252.245 990.388 252.245C981.908 252.245 974.886 249.529 969.321 244.096C963.756 238.664 960.973 230.846 960.973 220.644C960.973 213.091 962.563 207.129 965.743 202.756C969.056 198.251 973.826 195.005 980.053 193.017C986.281 191.03 993.833 190.036 1002.71 190.036H1024.38L1022.39 192.222V179.104C1022.39 172.877 1020.86 168.438 1017.82 165.788C1014.9 163.138 1010.59 161.813 1004.9 161.813C1002.11 161.813 999.134 162.078 995.954 162.608C992.773 163.138 989.328 163.933 985.618 164.993L988.401 162.012L985.817 178.111H968.526L966.936 149.093C975.946 146.443 984.161 144.522 991.581 143.329C999.134 142.004 1006.02 141.342 1012.25 141.342C1024.57 141.342 1033.98 143.992 1040.47 149.292C1046.97 154.592 1050.21 162.807 1050.21 173.937V235.749ZM988.997 217.861C988.997 222.764 990.123 226.408 992.376 228.793C994.761 231.045 997.742 232.171 1001.32 232.171C1004.63 232.171 1008.28 231.178 1012.25 229.19C1016.23 227.07 1020 224.221 1023.58 220.644L1022.39 225.414V202.756L1024.38 204.744H1007.28C1000.39 204.744 995.622 205.804 992.972 207.924C990.322 210.044 988.997 213.356 988.997 217.861Z" fill="black"/>
<path d="M1113.33 252.245C1108.16 252.245 1102.59 251.914 1096.63 251.252C1090.67 250.589 1084.24 249.595 1077.35 248.27V108.746L1081.72 116.299L1064.04 111.131V96.821L1105.18 95.231V160.819L1101.8 156.645C1106.57 151.875 1111.8 148.165 1117.5 145.515C1123.2 142.733 1129.23 141.342 1135.59 141.342C1143.27 141.342 1150.03 143.395 1155.86 147.503C1161.69 151.478 1166.26 157.44 1169.57 165.391C1173.02 173.341 1174.74 183.146 1174.74 194.806C1174.74 203.154 1173.68 210.839 1171.56 217.861C1169.57 224.751 1166.19 230.78 1161.42 235.948C1156.79 241.115 1150.49 245.157 1142.54 248.072C1134.73 250.854 1124.99 252.245 1113.33 252.245ZM1118.29 232.37C1127.84 232.37 1134.79 229.256 1139.16 223.029C1143.54 216.801 1145.72 208.122 1145.72 196.992C1145.72 189.705 1144.86 183.477 1143.14 178.309C1141.42 173.009 1139.03 168.968 1135.98 166.186C1132.94 163.271 1129.16 161.813 1124.65 161.813C1121.21 161.813 1117.57 162.741 1113.72 164.596C1109.88 166.451 1105.91 169.299 1101.8 173.142L1105.18 164.596V236.743L1101.8 229.985C1108.03 231.575 1113.52 232.37 1118.29 232.37Z" fill="black"/>
<path d="M1215.26 170.558C1215.26 173.606 1216.58 176.057 1219.23 177.912C1221.88 179.767 1225.26 181.357 1229.37 182.682C1233.61 184.007 1238.05 185.398 1242.69 186.856C1247.46 188.313 1251.9 190.235 1256 192.62C1260.24 194.872 1263.69 197.92 1266.34 201.762C1268.99 205.605 1270.31 210.574 1270.31 216.669C1270.31 224.486 1268.19 231.045 1263.95 236.345C1259.71 241.645 1253.95 245.62 1246.66 248.27C1239.37 250.92 1231.16 252.245 1222.02 252.245C1216.72 252.245 1211.09 251.782 1205.12 250.854C1199.29 249.927 1193.26 248.668 1187.04 247.078L1188.23 217.066H1205.72L1207.91 234.556L1205.52 231.178C1208.17 231.973 1211.09 232.635 1214.27 233.165C1217.45 233.563 1220.23 233.761 1222.61 233.761C1226.06 233.761 1229.24 233.298 1232.15 232.37C1235.2 231.443 1237.65 230.118 1239.51 228.395C1241.49 226.54 1242.49 224.221 1242.49 221.439C1242.49 218.259 1241.16 215.741 1238.51 213.886C1235.86 212.031 1232.42 210.441 1228.18 209.116C1224.07 207.791 1219.7 206.4 1215.06 204.942C1210.56 203.485 1206.18 201.563 1201.94 199.178C1197.84 196.793 1194.46 193.613 1191.81 189.638C1189.16 185.663 1187.83 180.496 1187.83 174.136C1187.83 166.451 1189.75 160.223 1193.6 155.453C1197.44 150.55 1202.54 146.973 1208.9 144.72C1215.39 142.468 1222.48 141.342 1230.17 141.342C1235.6 141.342 1241.36 141.872 1247.46 142.932C1253.55 143.859 1259.78 145.25 1266.14 147.105L1265.15 173.738H1247.46L1244.28 158.037L1248.05 162.211C1241.83 160.488 1236.33 159.627 1231.56 159.627C1226.65 159.627 1222.68 160.621 1219.63 162.608C1216.72 164.463 1215.26 167.113 1215.26 170.558Z" fill="black"/>
</svg>
