<?xml version="1.0" encoding="UTF-8"?><svg id="SHAPE" xmlns="http://www.w3.org/2000/svg" viewBox="0 0 1586.92 711.81"><defs><style>.cls-1{fill:#010101;}.cls-2{fill:#231f20;}</style></defs><g id="brandmark"><ellipse class="cls-2" cx="201.86" cy="202.08" rx="54.53" ry="36.08" transform="translate(-83.77 201.93) rotate(-45)"/><ellipse class="cls-2" cx="509.39" cy="509.61" rx="54.53" ry="36.08" transform="translate(-211.15 509.45) rotate(-45)"/><ellipse class="cls-2" cx="509.39" cy="202.08" rx="36.08" ry="54.53" transform="translate(6.3 419.38) rotate(-45)"/><ellipse class="cls-2" cx="201.86" cy="509.6" rx="36.08" ry="54.53" transform="translate(-301.22 292) rotate(-45)"/><circle class="cls-2" cx="355.63" cy="355.84" r="72.5"/><path class="cls-2" d="M355.63,105.84c-40.04,0-72.5,32.46-72.5,72.5-.49,8.43,2.89,49.82-26.14,78.87-29.03,29.06-70.44,25.64-78.86,26.13-40.04,0-72.5,32.46-72.5,72.5s32.46,72.5,72.5,72.5,72.5-32.46,72.5-72.5c.48-8.39-.71-48.22,28.35-77.26,29.05-29.04,68.25-27.26,76.65-27.74,40.04,0,72.5-32.46,72.5-72.5s-32.46-72.5-72.5-72.5Z"/><path class="cls-2" d="M355.68,605.9c40.04,0,72.5-32.46,72.5-72.5,.49-8.43-2.89-49.82,26.14-78.87,29.03-29.06,70.44-25.64,78.86-26.13,40.04,0,72.5-32.46,72.5-72.5s-32.46-72.5-72.5-72.5-72.5,32.46-72.5,72.5c-.48,8.39,.92,47.82-28.14,76.86-29.05,29.04-68.47,27.66-76.86,28.14-40.04,0-72.5,32.46-72.5,72.5s32.46,72.5,72.5,72.5Z"/></g><g id="workmark"><path class="cls-1" d="M888.02,565.24h20.26l14.4-13.86v-119.1l-14.4-14.4h-20.26l-5.87-5.87-21.85-20.26-14.4-14.4h-119.99l-14.4,14.4v200.15l14.4,13.86h119.99l14.4-13.86,21.85-20.26,5.87-6.4Zm-15.01-132.96v119.1l-6.4,5.87h-100.17l-10.13,10.13-5.87-5.87,11.33-11.33v-116.72l-11.33-11.31,5.87-5.87,10.13,10.13h100.17l6.4,5.87Z"/><path class="cls-1" d="M1425.96,605.76l14.4-13.86v-20.26l6.4-6.4h19.73l14.4-13.86v-119.09l-14.4-14.4h-19.73l-6.4-5.87v-20.26l-14.4-14.4h-101.31l-13.86,14.4v20.26l-6.4,5.87h-20.26l-14.4,14.4v119.09l14.4,13.86h20.26l6.4,6.4v20.26l13.86,13.86h101.31Zm4.78-173.48v119.09l-6.4,5.87h-98.69l-5.87-5.87v-119.09l5.87-5.87h98.69l6.4,5.87Z"/><path class="cls-1" d="M711.51,309.68c0,6.71,2.73,13.13,7.56,17.78h0c4.6,4.43,10.74,6.9,17.12,6.9h162.29c6.39,0,12.52-2.47,17.12-6.9h0c4.83-4.65,7.56-11.08,7.56-17.79h0c0-6.55-2.67-12.9-7.3-17.53h0c-4.72-4.72-11.18-7.43-17.85-7.43h-126.01c-2.75,0-5.39,1.09-7.33,3.04l-4.33,4.33c-1.66,1.66-4.34,1.66-6,0h0c-1.66-1.66-1.66-4.34,0-6l4.33-4.33c1.94-1.94,3.04-4.58,3.04-7.33V131.01c0-6.67-2.67-13.09-7.38-17.8h0c-4.69-4.69-11.08-7.35-17.72-7.35h0c-6.64,0-13.02,2.65-17.72,7.35h0c-4.72,4.72-7.38,11.13-7.38,17.8v178.67Z"/><path class="cls-1" d="M1163.83,144.33c-1.92-1.92-3-4.53-3-7.25v-6.12c0-6.64-2.65-13.02-7.35-17.72h0c-4.72-4.72-11.13-7.38-17.8-7.38h-78.42c-6.67,0-13.09,2.67-17.8,7.38h0c-4.69,4.69-7.35,11.08-7.35,17.72v6.12c0,2.72-1.08,5.32-3,7.25h0c-1.92,1.92-4.53,3-7.25,3h-6.12c-6.64,0-13.02,2.65-17.72,7.35h0c-4.72,4.72-7.38,11.13-7.38,17.8v137.1c0,6.71,2.73,13.13,7.56,17.78h0c4.6,4.43,10.74,6.9,17.12,6.9h.83c6.39,0,12.52-2.47,17.13-6.9h0c4.83-4.65,7.56-11.07,7.56-17.78v-53.44c0-2.81-1.08-5.51-3.01-7.55l-4.47-4.7c-1.61-1.69-1.57-4.35,.08-6h0c1.68-1.68,4.4-1.68,6.08,0l4.29,4.29c1.94,1.94,4.58,3.04,7.33,3.04h90.53c2.84,0,5.55-1.13,7.56-3.13l4.19-4.19c1.7-1.7,4.44-1.76,6.22-.14h0c1.85,1.7,1.95,4.59,.22,6.41l-4.29,4.52c-1.88,1.97-2.92,4.59-2.92,7.32v54.04c0,6.42,2.55,12.58,7.09,17.13h0c4.54,4.54,10.7,7.09,17.13,7.09h.75c6.39,0,12.52-2.47,17.12-6.9h0c4.83-4.65,7.56-11.07,7.56-17.78V172.48c0-6.76-2.67-13.09-7.38-17.8h0c-4.69-4.69-11.08-7.35-17.72-7.35h-6.12c-2.72,0-5.32-1.08-7.25-3h0Zm-14.66,14.55c2.21,2.03,3.48,4.9,3.48,7.9v17.93c0,2.75,1.09,5.39,3.04,7.33l4.06,4.06c1.81,1.81,1.81,4.74,0,6.55h0c-1.81,1.81-4.74,1.81-6.55,0l-4.06-4.06c-1.94-1.94-4.58-3.04-7.33-3.04h-90.79c-2.67,0-5.22,1.06-7.11,2.94l-4.15,4.15c-1.79,1.79-4.7,1.72-6.41-.14h0c-1.61-1.75-1.55-4.46,.13-6.14l4.23-4.23c2-2,3.13-4.72,3.13-7.56v-18.27c0-2.72,1.08-5.32,3-7.25h0c1.92-1.92,4.53-3,7.25-3h90.84c2.68,0,5.26,1.01,7.24,2.82h0Z"/><path class="cls-1" d="M1439.46,303.61c0-2.68,1.01-5.27,2.82-7.24h0c2.03-2.21,4.9-3.48,7.9-3.48h6.11c6.36,0,12.49-2.48,17.07-6.89h0c4.83-4.65,7.58-11.09,7.58-17.8v-6.03c0-6.67-2.65-13.07-7.37-17.78l-.25-.26c-4.56-4.55-10.73-7.11-17.17-7.11h-5.96c-3,0-5.87-1.26-7.9-3.48h0c-1.81-1.98-2.82-4.56-2.82-7.24v-12.32c0-2.72,1.08-5.32,3-7.25h0c1.92-1.92,4.52-3,7.24-3h6.13c6.63,0,13.02-2.66,17.71-7.35h0c4.72-4.72,7.39-11.13,7.39-17.8v-6.11c0-6.67-2.67-13.09-7.39-17.8h0c-4.69-4.69-11.08-7.35-17.71-7.35h-6.13c-2.72,0-5.33-1.08-7.24-3h0c-1.92-1.92-3-4.53-3-7.25v-6.12c0-6.64-2.66-13.02-7.35-17.72h0c-4.72-4.72-11.13-7.38-17.8-7.38h-119.39c-6.67,0-13.07,2.65-17.78,7.37h0c-4.72,4.72-7.37,11.11-7.37,17.78v178.67c0,6.71,2.73,13.13,7.56,17.78h0c4.6,4.43,10.74,6.9,17.12,6.9h120.31c6.39,0,12.52-2.48,17.13-6.91h0c4.83-4.65,7.56-11.07,7.56-17.78v-6.07Zm-12.19-144.73c2.22,2.03,3.48,4.9,3.48,7.9v17.6c0,2.96-1.17,5.81-3.27,7.9h0c-2.1,2.1-4.94,3.27-7.91,3.27h-89.42c-2.67,0-5.22,1.06-7.11,2.94l-4.15,4.15c-1.79,1.79-4.7,1.72-6.41-.14h0c-1.61-1.75-1.55-4.46,.13-6.14l4.23-4.23c2-2,3.13-4.72,3.13-7.56v-18.22c0-2.75-1.09-5.39-3.04-7.33l-4.33-4.33c-1.66-1.66-1.66-4.34,0-6h0c1.66-1.66,4.34-1.66,6,0l4.33,4.33c1.94,1.94,4.58,3.04,7.33,3.04h89.75c2.68,0,5.26,1,7.24,2.82h0Zm3.48,115.11c0,3-1.26,5.87-3.48,7.9h0c-1.97,1.81-4.56,2.82-7.24,2.82h-89.75c-2.75,0-5.39,1.09-7.33,3.04l-4.33,4.33c-1.66,1.66-4.35,1.66-6,0h0c-1.66-1.66-1.66-4.34,0-6l4.33-4.33c1.94-1.94,3.04-4.58,3.04-7.33v-18.27c0-2.81-1.08-5.51-3.01-7.55l-4.47-4.7c-1.61-1.69-1.57-4.35,.08-6h0c1.68-1.68,4.4-1.68,6.08,0l4.29,4.29c1.94,1.94,4.58,3.04,7.33,3.04h89.29c2.97,0,5.81,1.18,7.91,3.27h0c2.1,2.1,3.27,4.94,3.27,7.9v17.6Z"/><path class="cls-1" d="M1160.14,411.87v-20.31l-14.43-14.43-99.02,.12-14.43,14.43v20.31l-5.88,5.88-21.36-.05-14.38,14.43v159.69l14.38,13.9,21.36,.05,14.43-13.9v-70.94l-10.16-10.69,5.88-5.88,10.16,10.16,99.02-.12,10.15-10.16,6.41,5.88-10.16,10.69v70.94l13.9,13.9h20.31l15.97-13.9v-159.69l-15.97-14.43h-20.31l-5.88-5.88Zm-8.02,20.31v27.28l10.16,10.16-6.41,6.41-10.15-10.16-99.02,.12-10.16,10.16-5.88-6.41,10.16-10.16v-27.28l5.88-5.88,99.02-.12,6.41,5.88Z"/></g></svg>