<svg width="1666" height="806" viewBox="0 0 1666 806" fill="none" xmlns="http://www.w3.org/2000/svg">
<rect width="1666" height="806" fill="white"/>
<path d="M700.024 183.891C683.705 184.931 668.579 188.089 655.763 193.135C620.046 207.154 594.952 239.044 588.216 279.138C586.792 287.688 586.485 291.308 586.485 301.36C586.446 312.067 587.023 318.538 588.794 327.204C593.836 351.699 606.96 373.536 625.28 387.864C634.248 394.912 647.257 402.076 657.88 405.889C673.159 411.396 692.596 414.554 711.109 414.554C721.5 414.554 735.318 418.136 745.44 423.49C759.219 430.769 768.379 439.781 774.498 452.106C778.386 459.963 780.656 467.473 782.234 477.795C783.081 483.11 783.427 507.413 782.812 513.845C782.196 519.891 780.387 528.75 778.693 534.065C776.885 539.688 773.074 547.622 770.034 552.051L767.609 555.594L768.571 556.326C779.425 564.953 792.395 570.461 806.174 572.271C813.41 573.234 813.063 573.311 815.142 569.845C824.841 553.707 829.767 537.724 831.268 517.388C831.884 509.107 831.768 484.612 831.076 478.681C828.112 452.992 819.452 432.464 803.903 414.131C794.743 403.308 784.043 394.989 771.034 388.557C753.676 379.968 736.472 376.078 712.34 375.27C706.529 375.077 700.024 374.653 697.907 374.307C677.701 371.187 659.843 361.058 649.22 346.769C640.329 334.752 634.979 317.614 634.979 301.206C634.979 276.365 642.946 255.105 656.841 242.895C673.814 227.913 695.444 221.25 721 223.099C742.592 224.678 757.525 229.993 769.918 240.508C775.268 245.052 779.579 250.483 783.928 258.109C788.2 265.619 791.125 268.623 795.667 270.01C797.707 270.626 799.4 270.703 809.715 270.703C820.992 270.703 821.531 270.664 823.57 269.856C826.303 268.739 829.19 266.505 830.652 264.425C831.576 263.116 831.845 262.307 831.961 260.266C832.384 253.641 829.459 244.513 824.032 235.462C821.762 231.688 816.604 224.794 813.525 221.443C801.016 207.809 779.617 195.407 758.333 189.437C741.476 184.7 719.807 182.659 700.024 183.891Z" fill="black"/>
<path d="M956.7 278.945C952.698 280.254 949.58 282.989 947.771 286.956C946.963 288.766 946.924 289.228 946.809 304.21C946.693 320.348 946.886 323.237 948.31 326.048C949.503 328.398 952.274 330.901 955.122 332.249L957.701 333.481L975.021 333.597C993.649 333.751 995.573 333.597 998.768 331.864C1001.12 330.593 1003.85 327.82 1004.93 325.624C1005.81 323.853 1005.81 323.737 1005.81 305.944V288.034L1004.93 286.186C1003.58 283.528 1001 281.025 997.998 279.638L995.419 278.406L977.137 278.329C960.434 278.252 958.663 278.29 956.7 278.945Z" fill="black"/>
<path d="M800.285 375.154C793.28 375.732 783.889 377.041 778.655 378.197L775.922 378.813L779.617 380.739C792.896 387.671 803.98 396.645 813.564 408.199C815.142 410.125 816.797 412.166 817.22 412.744C817.99 413.784 818.144 413.822 823.378 414.169C848.357 415.941 865.638 423.143 878.146 437.008C881.302 440.513 883.342 443.479 886.729 449.371C891.271 457.228 894.311 460.117 899.392 461.311C902.779 462.12 921.715 462.197 924.601 461.388C928.72 460.309 932.761 457.344 934.069 454.417C934.955 452.529 935.032 448.871 934.262 444.904C931.183 428.843 917.481 410.472 899.584 398.378C879.801 385.052 857.247 377.465 830.768 375.308C826.342 374.923 804.173 374.807 800.285 375.154Z" fill="black"/>
<path d="M709.184 424.183C708.838 424.376 707.337 426.609 705.836 429.113C697.253 443.44 691.98 459.732 689.825 478.296C689.132 484.227 689.016 508.722 689.632 517.003C690.748 531.792 693.558 543.924 698.715 555.864C711.301 585.058 735.741 605.817 768.994 615.561C796.129 623.495 833.269 623.534 861.173 615.6C877.415 611.017 895.274 601.889 907.474 591.952C919.021 582.554 929.027 569.151 932.645 558.29C934.916 551.55 935.455 544.772 933.992 541.768C933.03 539.803 930.067 537.03 927.68 535.913C924.563 534.45 922.638 534.257 910.861 534.411C900.046 534.527 899.469 534.565 897.275 535.451C893.773 536.838 890.309 540.612 886.883 546.659C882.573 554.323 879.147 558.714 873.412 563.913C864.098 572.464 850.935 578.241 834.924 580.898C826.265 582.323 810.485 582.67 802.402 581.553C786.891 579.435 772.92 573.272 761.143 563.374C753.176 556.634 745.94 545.272 742.207 533.68C740.513 528.365 738.704 519.506 738.089 513.459C737.473 507.028 737.819 482.725 738.666 477.41C740.706 464.045 744.632 453.223 750.559 444.519L753.06 440.783L751.482 439.473C747.287 436.084 740.937 432.387 734.933 429.806C726.003 425.993 711.416 422.796 709.184 424.183Z" fill="black"/>
<path d="M962.512 424.799C958.432 425.916 954.699 428.882 953.121 432.232L952.313 434.004V522.587C952.313 595.303 952.39 611.44 952.813 612.634C953.583 614.714 956.893 618.18 959.433 619.451C960.626 620.029 962.589 620.722 963.859 620.953C966.707 621.492 986.336 621.492 989.069 620.992C993.803 620.106 998.267 616.871 999.807 613.289L1000.62 611.402V522.78V434.12L999.807 432.232C998.691 429.729 995.188 426.455 992.263 425.3C990.108 424.414 989.608 424.375 977.33 424.298C967.015 424.221 964.244 424.337 962.512 424.799Z" fill="black"/>
<path d="M596.107 535.22C592.065 536.376 588.332 539.187 586.908 542.153C585.445 545.157 585.984 551.935 588.255 558.675C591.873 569.536 601.88 582.939 613.426 592.337C625.627 602.274 643.485 611.402 659.727 615.985C679.664 621.646 705.22 623.38 728.428 620.607C733.624 620.029 742.476 618.488 745.209 617.757C745.44 617.718 743.054 616.37 739.975 614.752C724.387 606.626 713.572 597.922 703.526 585.443L701.14 582.477H698.754C697.445 582.477 694.02 582.208 691.172 581.9C673.082 580.012 657.995 573.927 647.488 564.298C641.753 559.099 638.328 554.708 634.017 547.044C630.63 540.997 627.128 537.223 623.625 535.836C621.393 534.95 620.931 534.912 609.577 534.835C600.994 534.758 597.377 534.873 596.107 535.22Z" fill="black"/>
<path d="M1039.06 566.263C1035.06 567.572 1031.94 570.307 1030.14 574.274C1029.33 576.084 1029.29 576.546 1029.17 591.528C1029.06 607.666 1029.25 610.554 1030.67 613.366C1031.87 615.715 1034.64 618.219 1037.49 619.567L1040.07 620.799L1057.38 620.915C1076.01 621.069 1077.94 620.915 1081.13 619.182C1083.48 617.911 1086.21 615.138 1087.29 612.942C1088.18 611.171 1088.18 611.055 1088.18 593.261V575.352L1087.29 573.503C1085.94 570.846 1083.36 568.343 1080.36 566.956L1077.78 565.724L1059.5 565.647C1042.8 565.569 1041.03 565.608 1039.06 566.263Z" fill="black"/>
</svg>
