<svg width="235" height="38" viewBox="0 0 235 38" fill="none" xmlns="http://www.w3.org/2000/svg">
<path d="M12.7058 37.3133L0 0.932617H6.58726L16.3201 30.0911L26.09 0.932617H32.6279L19.9221 37.3133H12.7058Z" fill="black"/>
<path d="M36.082 6.38908C34.6634 4.92993 34.6634 2.74733 36.082 1.34949C37.4883 -0.109661 39.7951 -0.109661 41.2013 1.34949C42.6076 2.74733 42.6076 4.94219 41.152 6.38908C39.7457 7.78693 37.55 7.78693 36.082 6.38908ZM35.823 37.3133V11.3183H41.4727V37.3133H35.823Z" fill="black"/>
<path d="M51.8717 37.3136V16.7383H46.0986V11.3309H51.8717V4.04736H57.5215V11.3186H63.0479V16.726H57.5215V37.3136H51.8717Z" fill="black"/>
<path d="M88.5085 11.3306H94.1583V37.3256H88.5085V33.5858C86.3621 36.5531 83.3276 38 79.3555 38C75.7534 38 72.7189 36.7003 70.153 34.0517C67.5872 31.4032 66.3413 28.1293 66.3413 24.3281C66.3413 20.4779 67.5996 17.2531 70.153 14.6045C72.7189 11.956 75.7534 10.6562 79.3555 10.6562C83.3276 10.6562 86.3621 12.1154 88.5085 15.0214V11.3306ZM80.2436 32.6416C82.5997 32.6416 84.5858 31.8569 86.1524 30.2996C87.7191 28.6933 88.5085 26.7192 88.5085 24.3159C88.5085 21.9126 87.7191 19.9507 86.1524 18.3934C84.5858 16.7871 82.5997 16.0024 80.2436 16.0024C77.8875 16.0024 75.9015 16.7871 74.3348 18.3934C72.7682 19.9507 71.9787 21.9248 71.9787 24.3159C71.9787 26.7069 72.7682 28.6811 74.3348 30.2996C75.9015 31.8569 77.8998 32.6416 80.2436 32.6416Z" fill="black"/>
<path d="M115.043 0.932617C120.063 0.932617 124.245 2.69831 127.539 6.18066C130.882 9.663 132.559 13.9791 132.559 19.1291C132.559 24.2177 130.882 28.5339 127.539 32.0775C124.245 35.5599 120.063 37.3256 115.043 37.3256H100.659V0.932617H115.043ZM115.043 31.5993C118.497 31.5993 121.321 30.4099 123.468 28.0679C125.664 25.7259 126.761 22.7095 126.761 19.1291C126.761 15.4873 125.664 12.5323 123.468 10.1903C121.321 7.84826 118.497 6.65887 115.043 6.65887H106.679V31.6116H115.043V31.5993Z" fill="black"/>
<path d="M155.985 24.3771L150.187 7.94636L144.377 24.3771L142.391 29.9808L139.825 37.3133H133.287L146.573 0.932617H153.789L167.025 37.3133H160.537L157.971 29.9808" fill="black"/>
<path d="M186.737 37.9873C181.457 37.9873 176.955 36.1726 173.242 32.5308C169.578 28.84 167.752 24.3645 167.752 19.1164C167.752 13.8684 169.578 9.39284 173.242 5.76335C176.955 2.07256 181.457 0.257812 186.737 0.257812C192.017 0.257812 196.519 2.07256 200.171 5.76335C203.884 9.4051 205.709 13.8684 205.709 19.1164C205.709 24.3645 203.884 28.84 200.171 32.5308C196.519 36.1726 192.017 37.9873 186.737 37.9873ZM186.737 32.1752C190.401 32.1752 193.485 30.9245 195.94 28.4844C198.444 25.9953 199.702 22.8685 199.702 19.1287C199.702 15.3889 198.444 12.2621 195.94 9.822C193.485 7.33286 190.401 6.08216 186.737 6.08216C183.073 6.08216 179.989 7.33286 177.485 9.822C175.031 12.2621 173.772 15.3889 173.772 19.1287C173.772 22.8685 175.031 25.9953 177.485 28.4844C179.989 30.9245 183.073 32.1752 186.737 32.1752Z" fill="black"/>
<path d="M213.333 0.760835L213.568 0.920238C217.811 3.89985 223.486 3.89985 227.717 0.895714C231.22 -1.58117 235.661 2.40391 233.527 6.11923L226.249 18.7857C223.745 23.1508 217.417 23.1508 214.9 18.7857L207.548 5.98435C205.414 2.29356 209.83 -1.70378 213.333 0.760835Z" fill="#FFDD35"/>
</svg>
