<svg width="136" height="58" viewBox="0 0 136 58" fill="none" xmlns="http://www.w3.org/2000/svg">
<path d="M0 23.6432H7.91733C15.2739 23.6432 19.8263 19.1027 19.8263 12C19.8263 4.8973 15.2739 0.356757 7.91733 0.356757H0V23.6432ZM4.12361 20.0757V3.92432H7.88434C12.7997 3.92432 15.6697 7.07027 15.6697 12C15.6697 16.8973 12.7997 20.0757 7.91733 20.0757H4.12361Z" fill="white"/>
<path d="M27.7803 0.356757V23.6432H43.8129V20.0108H31.9369V13.4595H41.9326V9.82703H31.9369V3.98919H43.8129V0.356757H27.7803Z" fill="white"/>
<path d="M49.6087 19.1027C51.4561 22.0865 55.4808 24 59.5384 24C64.4207 24 68.5114 21.1784 68.5114 16.6054C68.5114 11.5459 63.9259 10.6703 60.0992 9.82703C56.8993 9.11351 55.0849 8.69189 55.0849 6.64865C55.0849 4.8 56.8333 3.53514 59.3734 3.53514C62.1445 3.53514 63.8929 4.92973 65.2125 6.94054L68.3134 4.31351C66.73 1.88108 63.563 0 59.5054 0C54.722 0 50.9613 2.75676 50.9613 7.07027C50.9613 11.6108 54.788 12.6486 58.3508 13.4919C61.8806 14.3351 64.3548 14.6595 64.3548 17.027C64.3548 19.2649 62.3424 20.4649 59.6703 20.4649C56.9653 20.4649 54.4911 19.0054 52.8416 16.4757L49.6087 19.1027Z" fill="white"/>
<path d="M78.1266 12C78.1266 6.97297 80.8977 3.66486 84.7904 3.66486C87.5615 3.66486 89.5738 5.31892 90.2995 8.04324L94.2582 6.71351C92.8727 2.59459 89.5738 0 84.7904 0C78.4895 0 73.9041 4.92973 73.9041 12C73.9041 19.0703 78.4895 24 84.7904 24C89.5738 24 92.8727 21.4054 94.2582 17.2865L90.2995 15.9568C89.5738 18.6811 87.5615 20.3351 84.7904 20.3351C80.8977 20.3351 78.1266 17.027 78.1266 12Z" fill="white"/>
<path d="M105 0.356757H100.777V23.6432H105V0.356757Z" fill="white"/>
<path d="M17.0401 57.6352H20.8963V44.8808H10.613V48.572H16.8423C16.7105 51.9336 14.4692 54.3724 11.0414 54.3724C6.98742 54.3724 4.21882 50.9449 4.21882 45.8365C4.21882 40.7281 6.98742 37.3335 10.9755 37.3335C13.81 37.3335 15.7876 38.9485 16.4798 41.7498L20.5008 40.3986C19.0506 36.213 15.7876 33.6094 10.9426 33.6094C4.58138 33.6094 0 38.7178 0 45.9024C0 53.0542 4.54842 57.9977 10.6789 57.9977C13.7771 57.9977 16.0843 56.7783 17.0401 55.1964V57.6352Z" fill="white"/>
<path d="M26.8146 57.6352H42.1738V53.944H31.0335V33.9719H26.8146V57.6352Z" fill="white"/>
<path d="M44.4954 45.8036C44.4954 52.9882 49.1097 57.9977 55.5039 57.9977C61.898 57.9977 66.5124 52.9882 66.5124 45.8036C66.5124 38.6189 61.898 33.6094 55.5039 33.6094C49.1097 33.6094 44.4954 38.6189 44.4954 45.8036ZM62.2935 45.8036C62.2935 50.9449 59.492 54.2736 55.5039 54.2736C51.5158 54.2736 48.7142 50.9449 48.7142 45.8036C48.7142 40.6622 51.5158 37.3335 55.5039 37.3335C59.492 37.3335 62.2935 40.6622 62.2935 45.8036Z" fill="white"/>
<path d="M71.4388 57.6352H81.4255C86.3035 57.6352 89.3688 55.1964 89.3688 51.0438C89.3688 48.1435 87.7208 46.1002 85.2488 45.3092C86.8968 44.6501 88.6107 43.134 88.6107 40.2008C88.6107 36.18 85.908 33.9719 80.8322 33.9719H71.4388V57.6352ZM75.4928 43.7602V37.5313H80.4367C83.1394 37.5313 84.6226 38.553 84.6226 40.6293C84.6226 42.7056 83.1394 43.7602 80.4367 43.7602H75.4928ZM75.4928 47.3196H81.1948C83.8645 47.3196 85.3147 48.7038 85.3147 50.6812C85.3147 52.6916 83.8645 54.0758 81.1948 54.0758H75.4928V47.3196Z" fill="white"/>
<path d="M100.869 33.9719L91.9036 57.6352H96.0894L98.0999 52.2302H108.317L110.361 57.6352H114.613L105.648 33.9719H100.869ZM103.176 38.6518L106.933 48.539H99.4843L103.176 38.6518Z" fill="white"/>
<path d="M118.831 57.6352H134.19V53.944H123.05V33.9719H118.831V57.6352Z" fill="white"/>
<ellipse cx="122.709" cy="12.0078" rx="11.709" ry="11.9765" fill="white"/>
<path fill-rule="evenodd" clip-rule="evenodd" d="M111 23.9843L111 0.03125H111.016L111.016 23.9843H111Z" fill="black"/>
<path fill-rule="evenodd" clip-rule="evenodd" d="M111.652 23.9843L111.652 0.03125L111.684 0.03125L111.684 23.9843L111.652 23.9843Z" fill="black"/>
<path fill-rule="evenodd" clip-rule="evenodd" d="M112.312 0.03125L112.352 0.03125L112.352 23.9843L112.312 23.9843L112.312 0.03125Z" fill="black"/>
<path fill-rule="evenodd" clip-rule="evenodd" d="M112.968 23.9843L112.968 0.03125L113.016 0.03125L113.016 23.9843L112.968 23.9843Z" fill="black"/>
<path fill-rule="evenodd" clip-rule="evenodd" d="M113.62 23.9843L113.62 0.03125L113.668 0.03125L113.668 23.9843L113.62 23.9843Z" fill="black"/>
<path fill-rule="evenodd" clip-rule="evenodd" d="M114.255 23.9843L114.255 0.03125L114.32 0.03125L114.32 7.48491L114.272 7.53381L114.272 10.6713L114.32 10.7365L114.32 23.9843L114.255 23.9843Z" fill="black"/>
<path fill-rule="evenodd" clip-rule="evenodd" d="M114.902 23.9843L114.902 0.03125L114.984 0.03125L114.984 5.62688L114.924 5.69207L114.924 11.804L114.984 11.8448L114.984 23.9843L114.902 23.9843Z" fill="black"/>
<path fill-rule="evenodd" clip-rule="evenodd" d="M115.554 23.9843L115.554 0.03125L115.668 0.03125L115.668 4.68156L115.579 4.74675L115.579 12.4967L115.668 12.5456L115.668 23.9843L115.554 23.9843Z" fill="black"/>
<path fill-rule="evenodd" clip-rule="evenodd" d="M116.204 23.9843L116.204 0.03125L116.232 0.03125L116.232 10.9402L116.367 11.0054L116.367 11.967L116.232 12.0567L116.232 12.896L116.367 12.9531L116.367 23.9843L116.204 23.9843Z" fill="black"/>
<path fill-rule="evenodd" clip-rule="evenodd" d="M116.854 23.9843L116.854 0.03125L116.892 0.03125L116.892 10.0764L117 10.109L117 12.0567L116.892 12.0811L116.892 13.6132L117 13.6376L117 23.9843L116.854 23.9843Z" fill="black"/>
<path fill-rule="evenodd" clip-rule="evenodd" d="M117.454 23.9843L117.454 0.03125L117.497 0.03125L117.497 10.1986L117.617 10.2475L117.617 12.8145L117.497 12.8797L117.497 14.1918L117.617 14.2325L117.617 23.9843L117.454 23.9843Z" fill="black"/>
<path fill-rule="evenodd" clip-rule="evenodd" d="M118.157 23.9843L118.157 0.03125L118.201 0.03125L118.201 10.329L118.336 10.3698L118.336 13.8984L118.201 13.931L118.201 14.9904L118.336 15.0148L118.336 23.9843L118.157 23.9843Z" fill="black"/>
<path fill-rule="evenodd" clip-rule="evenodd" d="M118.805 23.9999L118.805 0.046875L118.86 0.046875L118.841 2.06497L118.841 2.21165L118.86 10.1328L119 10.1817L119 14.3622L118.86 14.4274L118.86 15.0875L119 15.169L119 15.9839L118.86 16.0736L118.86 18.2331L119 18.3065L119 23.9999L118.805 23.9999Z" fill="black"/>
<path fill-rule="evenodd" clip-rule="evenodd" d="M119.456 23.9843L119.456 0.03125L119.668 0.03125L119.668 4.7875L119.522 4.87714L119.522 9.54668L119.668 9.62002L119.668 14.1429L119.522 14.2081L119.522 19.1384L119.668 19.2199L119.668 23.9843L119.456 23.9843Z" fill="black"/>
<path fill-rule="evenodd" clip-rule="evenodd" d="M120.108 23.9843L120.108 0.03125L120.336 0.03125L120.336 3.80959L120.336 3.89108L120.336 5.43129L120.176 5.57798L120.176 8.74805L120.336 8.83769L120.336 14.1103L120.176 14.1999L120.176 19.6599L120.336 19.7496L120.336 23.9843L120.108 23.9843Z" fill="black"/>
<path fill-rule="evenodd" clip-rule="evenodd" d="M120.758 23.9843L120.758 0.03125L121.002 0.03125L121.082 4.15186L120.84 4.29854L120.842 8.31614L121.002 8.43838L121.002 14.257L120.842 14.3385L120.842 23.3027L121.002 23.4005L121.002 23.9843L120.758 23.9843Z" fill="black"/>
<path fill-rule="evenodd" clip-rule="evenodd" d="M121.408 23.9843L121.408 0.03125L121.668 0.03125L121.668 4.40448L121.514 4.56747L121.514 7.85163L121.668 7.99017L121.668 14.4851L121.514 14.5992L121.514 23.3353L121.668 23.4412L121.668 23.9843L121.408 23.9843Z" fill="black"/>
<path fill-rule="evenodd" clip-rule="evenodd" d="M122.059 23.9843L122.059 0.03125L122.336 0.03125L122.336 4.59192L122.184 4.68156L122.184 7.47676L122.336 7.6153L122.336 14.2488L122.184 14.4444L122.184 22.7974L122.336 22.8789L122.336 23.9843L122.059 23.9843Z" fill="black"/>
<path fill-rule="evenodd" clip-rule="evenodd" d="M123 23.953L123 1.30963e-08L123.293 0L123.293 5.40819L123.136 5.51413L123.136 7.30698L123.293 7.46181L123.293 14.9754L123.136 15.0732L123.136 22.4728L123.293 22.5624L123.293 23.953L123 23.953Z" fill="black"/>
<path fill-rule="evenodd" clip-rule="evenodd" d="M123.359 23.9843L123.359 22.6263L123.359 22.4388L123.359 15.2756L123.359 15.08L123.359 0.03125L123.668 0.03125L123.668 15.0963L123.524 15.2104L123.524 22.4714L123.668 22.6263L123.668 23.9843L123.359 23.9843Z" fill="black"/>
<path fill-rule="evenodd" clip-rule="evenodd" d="M124.01 23.9843L124.01 22.3411L124.01 22.1129L124.01 15.6994L124.01 15.4712L124.01 0.03125L124.336 0.03125L124.336 15.6505L124.176 15.8787L124.176 21.9173L124.336 22.1292L124.336 23.9843L124.01 23.9843Z" fill="black"/>
<path fill-rule="evenodd" clip-rule="evenodd" d="M124.662 23.9843L124.662 21.9091L124.662 21.6402L124.662 16.2209L124.662 15.9846L124.662 0.03125L125.004 0.03125L125.004 16.1231L124.86 16.3269L124.86 21.4691L125.004 21.6402L125.004 23.9843L124.662 23.9843Z" fill="black"/>
<path fill-rule="evenodd" clip-rule="evenodd" d="M125.31 23.9843L125.31 21.2164L125.31 20.9394L125.31 17.0685L125.31 16.8403L125.31 0.03125L125.668 0.03125L125.668 17.2152L125.572 17.3374L125.572 20.7764L125.668 20.8823L125.668 23.9843L125.31 23.9843Z" fill="black"/>
<path fill-rule="evenodd" clip-rule="evenodd" d="M125.962 23.9843L125.962 20.6379L125.962 20.4097L125.962 17.8345L125.962 17.5982L125.962 0.03125L126.336 0.03125L126.336 17.5982L126.256 17.7204L126.256 20.2793L126.336 20.4097L126.336 23.9843L125.962 23.9843Z" fill="black"/>
<path fill-rule="evenodd" clip-rule="evenodd" d="M126.613 23.9843L126.613 19.8474L126.613 19.6599L126.613 17.6145L126.613 17.37L126.613 0.03125L127.004 0.03125L127.004 17.7449L126.94 17.8752L126.94 19.7251L127.004 19.8474L127.004 23.9843L126.613 23.9843Z" fill="black"/>
<path fill-rule="evenodd" clip-rule="evenodd" d="M127.197 23.9856L127.197 19.0745L127.197 18.8871L127.197 18.0396L127.197 17.8114L127.197 2.92266L127.452 2.78413L127.452 8.92209e-09L127.668 0.0325971L127.668 18.2026L127.62 18.333L127.62 18.7975L127.668 18.9197L127.668 23.9856L127.197 23.9856Z" fill="black"/>
<path fill-rule="evenodd" clip-rule="evenodd" d="M127.8 23.9843L127.8 5.06458L128.072 4.93419L128.072 4.00517L127.8 3.89108L127.8 0.03125L128.336 0.03125L128.336 23.9843L127.8 23.9843Z" fill="black"/>
<path fill-rule="evenodd" clip-rule="evenodd" d="M128.453 23.9843L128.453 5.3335L128.678 5.24386L128.678 4.38819L128.437 4.2741L128.437 0.03125L129.004 0.03125L129.004 23.9843L128.453 23.9843Z" fill="black"/>
<path fill-rule="evenodd" clip-rule="evenodd" d="M129.117 23.9843L129.117 7.21599L129.328 7.09375L129.328 0.03125L129.668 0.03125L129.668 23.9843L129.117 23.9843Z" fill="black"/>
<path fill-rule="evenodd" clip-rule="evenodd" d="M129.768 23.9843L129.768 11.3558L129.903 11.2254L129.903 0.03125L130.336 0.03125L130.336 23.9843L129.768 23.9843Z" fill="black"/>
<path fill-rule="evenodd" clip-rule="evenodd" d="M130.42 23.9843L130.42 13.4583L130.549 13.3524L130.549 0.03125L131.004 0.03125L131.004 23.9843L130.42 23.9843Z" fill="black"/>
<path fill-rule="evenodd" clip-rule="evenodd" d="M131.088 23.9843L131.088 14.1103L131.204 14.0206L131.204 0.0475486L131.672 0.03125L131.672 23.9843L131.088 23.9843Z" fill="black"/>
<path fill-rule="evenodd" clip-rule="evenodd" d="M131.72 23.9843L131.72 14.2325L131.847 14.151L131.847 0.03125L132.336 0.03125L132.336 23.9843L131.72 23.9843Z" fill="black"/>
<path fill-rule="evenodd" clip-rule="evenodd" d="M132.371 23.9843L132.371 18.8884L132.371 13.7925L132.509 13.6784L132.509 0.03125L133.004 0.03125L133.004 23.9843L132.371 23.9843Z" fill="black"/>
<path fill-rule="evenodd" clip-rule="evenodd" d="M133.039 23.9843L133.039 13.0835L133.166 12.9938L133.135 0.0475486L133.672 0.03125L133.672 23.9843L133.039 23.9843Z" fill="black"/>
<path fill-rule="evenodd" clip-rule="evenodd" d="M133.705 23.9843L133.705 13.3116L133.817 13.1894L133.848 0.03125L134.418 0.03125L134.418 23.9843L133.705 23.9843Z" fill="black"/>
<path fill-rule="evenodd" clip-rule="evenodd" d="M134.418 23.9843L134.418 0.03125L135.004 0.03125L135.004 23.9843L134.418 23.9843Z" fill="black"/>
</svg>
