<svg width="553" height="615" viewBox="0 0 553 615" fill="none" xmlns="http://www.w3.org/2000/svg">
<path d="M543.279 460.646C526.653 489.422 492.809 501.34 450.809 501.34C398.924 501.35 334.637 483.069 274.823 456.053L274.817 456.058C255.197 464.813 235.145 472.574 214.739 479.303C232.728 535.147 257.525 566.954 277.312 566.954C290.833 566.954 306.588 552.287 320.531 526.719H320.526C324.573 519.313 332.255 514.626 340.692 514.423C349.125 514.219 357.026 518.532 361.422 525.73C365.817 532.933 366.041 541.933 362.005 549.339C332.776 602.943 299.808 614.194 277.308 614.194C227.922 614.194 191.469 563.121 169.177 491.735V491.74C147.026 497.027 124.365 499.902 101.593 500.319C59.3689 500.319 25.9049 488.147 9.36891 459.501C-27.7924 395.132 51.1916 298.461 147.729 229.168C150.021 208.028 153.375 187.017 157.786 166.209C151.448 164.86 145.182 163.652 139.098 162.714C94.6503 155.876 61.3796 161.423 52.2649 177.173C45.8065 188.371 50.0045 208.293 63.7753 231.824C66.9524 237.23 67.8482 243.678 66.2649 249.745C64.6868 255.818 60.7545 261.005 55.3431 264.172C49.9316 267.344 43.4837 268.229 37.4164 266.635C31.3486 265.047 26.1664 261.109 23.0044 255.693C-6.38094 205.499 0.447054 172.442 11.3481 153.557C31.2855 119.021 79.2441 105.734 146.281 116.015C153.943 117.192 161.792 118.682 169.781 120.432C192.131 50.0933 228.375 0 277.303 0C351.037 0 395.136 114.885 407.292 232.173C424.661 244.767 441.391 258.231 457.401 272.512C461.615 267.819 465.698 263.121 469.459 258.439C497.609 223.36 509.453 191.777 500.355 176.023C494.256 165.465 477.209 159.315 452.349 158.705C446.089 158.554 440.141 155.919 435.819 151.382C431.501 146.846 429.157 140.778 429.314 134.513C429.381 128.227 431.991 122.232 436.548 117.893C441.1 113.555 447.215 111.237 453.501 111.476C507.261 112.784 530.908 134.455 541.267 152.398C561.204 186.919 548.787 235.086 506.308 288.011C501.584 293.897 496.542 299.787 491.188 305.678C541.917 360.704 567.964 417.85 543.267 460.638L543.279 460.646ZM157.425 446.266C148.04 400.474 143.357 353.845 143.456 307.093C143.456 301.978 143.513 296.853 143.633 291.724C68.7784 353.136 36.4037 411.817 50.2944 435.87C60.1799 453.016 100.106 458.584 157.425 446.256L157.425 446.266ZM215.431 132.933C260.269 147.845 303.436 167.36 344.248 191.173C347.852 193.251 351.441 195.371 355.019 197.527C339.065 103.606 304.841 47.2471 277.321 47.2471C257.775 47.2523 233.363 78.3671 215.431 132.94L215.431 132.933ZM318.644 380.96C356.196 359.528 391.477 334.334 423.947 305.777C392.083 277.782 357.468 253.094 320.629 232.08C283.416 210.345 244.103 192.429 203.285 178.606C194.671 220.888 190.457 263.945 190.702 307.096C190.478 349.596 194.572 392.013 202.921 433.684C243.181 420.074 281.951 402.408 318.644 380.96ZM457.657 338.902V338.907C422.184 370.501 383.512 398.303 342.272 421.871C338.47 424.064 334.532 426.064 330.678 428.194C421.392 462.382 488.492 461.096 502.372 437.017C512.268 419.872 497.096 382.449 457.658 338.908L457.657 338.902Z" fill="#00D4C8"/>
</svg>
