<svg width="347" height="90" viewBox="0 0 347 90" fill="none" xmlns="http://www.w3.org/2000/svg">
<path d="M108.059 57.0527V32.6462H118.255C120.908 32.6462 123.146 33.0843 124.97 33.9606C126.817 34.8369 128.215 36.1751 129.162 37.9751C130.133 39.7514 130.618 42.0369 130.618 44.8317C130.618 47.6027 130.133 49.9001 129.162 51.7238C128.215 53.5238 126.817 54.8619 124.97 55.7383C123.146 56.6146 120.908 57.0527 118.255 57.0527H108.059ZM114.418 52.079H118.184C119.179 52.079 120.043 51.9369 120.778 51.6527C121.512 51.3685 122.128 50.954 122.625 50.4093C123.122 49.8646 123.49 49.1896 123.726 48.3843C123.963 47.579 124.082 46.6554 124.082 45.6133V44.1212C124.082 43.0554 123.963 42.1198 123.726 41.3146C123.49 40.5093 123.122 39.8343 122.625 39.2896C122.128 38.7448 121.512 38.3304 120.778 38.0462C120.043 37.7619 119.179 37.6198 118.184 37.6198H114.418V52.079ZM141.805 57.4791C139.674 57.4791 137.862 57.1356 136.37 56.4488C134.877 55.7383 133.729 54.6606 132.924 53.2159C132.142 51.7712 131.751 49.9238 131.751 47.6738C131.751 45.4712 132.142 43.6475 132.924 42.2027C133.705 40.758 134.83 39.6804 136.299 38.9698C137.767 38.2593 139.531 37.904 141.592 37.904C143.629 37.904 145.346 38.2475 146.743 38.9343C148.164 39.6212 149.242 40.6751 149.976 42.0962C150.71 43.5172 151.077 45.3527 151.077 47.6027V48.8462H137.649C137.649 49.8409 137.791 50.6817 138.075 51.3685C138.359 52.0554 138.797 52.5764 139.389 52.9317C139.981 53.2869 140.775 53.4646 141.77 53.4646C142.362 53.4646 142.883 53.3935 143.333 53.2514C143.783 53.1093 144.162 52.908 144.47 52.6475C144.777 52.3633 145.014 52.0317 145.18 51.6527C145.346 51.2738 145.429 50.8475 145.429 50.3738H151.077C151.077 51.5106 150.864 52.529 150.438 53.429C150.035 54.3054 149.431 55.0514 148.626 55.6672C147.821 56.2593 146.838 56.7093 145.677 57.0172C144.541 57.3251 143.25 57.4791 141.805 57.4791ZM137.684 45.6133H145.145C145.145 44.9975 145.062 44.4646 144.896 44.0146C144.754 43.5409 144.529 43.1501 144.221 42.8422C143.937 42.5343 143.581 42.3093 143.155 42.1672C142.752 42.0014 142.279 41.9185 141.734 41.9185C140.881 41.9185 140.171 42.0606 139.602 42.3448C139.034 42.629 138.596 43.0435 138.288 43.5883C137.98 44.133 137.779 44.808 137.684 45.6133ZM163.446 57.4791C161.906 57.4791 160.461 57.3369 159.111 57.0527C157.761 56.7922 156.565 56.3541 155.523 55.7383C154.505 55.1225 153.7 54.3172 153.107 53.3225C152.515 52.304 152.219 51.0606 152.219 49.5922C152.219 49.4975 152.219 49.3909 152.219 49.2725C152.219 49.154 152.231 49.0593 152.255 48.9883H158.401C158.401 49.0593 158.389 49.154 158.365 49.2725C158.365 49.3672 158.365 49.4501 158.365 49.5212C158.365 50.279 158.555 50.8948 158.934 51.3685C159.336 51.8185 159.893 52.1501 160.604 52.3633C161.314 52.5527 162.143 52.6475 163.09 52.6475C163.611 52.6475 164.097 52.6238 164.547 52.5764C164.997 52.529 165.4 52.4462 165.755 52.3277C166.11 52.2093 166.418 52.0672 166.679 51.9014C166.963 51.7119 167.164 51.4988 167.282 51.2619C167.425 51.0014 167.496 50.7054 167.496 50.3738C167.496 49.829 167.282 49.379 166.856 49.0238C166.454 48.6685 165.897 48.3725 165.186 48.1356C164.5 47.8988 163.718 47.6738 162.842 47.4606C161.965 47.2475 161.054 47.0225 160.106 46.7856C159.159 46.5488 158.247 46.2527 157.371 45.8975C156.494 45.5422 155.701 45.0922 154.99 44.5475C154.304 44.0027 153.747 43.3277 153.321 42.5225C152.918 41.6935 152.717 40.6988 152.717 39.5383C152.717 38.2593 152.989 37.158 153.534 36.2343C154.079 35.2869 154.825 34.5172 155.772 33.9251C156.743 33.333 157.856 32.9067 159.111 32.6462C160.367 32.3619 161.705 32.2198 163.126 32.2198C164.523 32.2198 165.826 32.3619 167.034 32.6462C168.265 32.9304 169.355 33.3804 170.302 33.9962C171.25 34.5883 171.984 35.3462 172.505 36.2698C173.05 37.1698 173.334 38.2593 173.357 39.5383V39.9646H167.247V39.7159C167.247 39.1712 167.093 38.6975 166.785 38.2948C166.501 37.8685 166.063 37.5369 165.471 37.3001C164.879 37.0396 164.144 36.9093 163.268 36.9093C162.392 36.9093 161.646 36.9922 161.03 37.158C160.438 37.3238 159.976 37.5606 159.644 37.8685C159.336 38.1764 159.182 38.5435 159.182 38.9698C159.182 39.4909 159.384 39.9172 159.786 40.2488C160.213 40.5804 160.781 40.8646 161.492 41.1014C162.202 41.3383 162.996 41.5633 163.872 41.7764C164.748 41.9659 165.648 42.179 166.572 42.4159C167.519 42.629 168.431 42.9133 169.307 43.2685C170.184 43.6001 170.977 44.0383 171.688 44.583C172.398 45.104 172.955 45.7554 173.357 46.5369C173.784 47.3185 173.997 48.2659 173.997 49.379C173.997 51.3212 173.535 52.8843 172.611 54.0685C171.711 55.2527 170.456 56.1172 168.846 56.6619C167.259 57.2067 165.459 57.4791 163.446 57.4791ZM184.7 57.4791C182.639 57.4791 180.887 57.1238 179.442 56.4133C177.997 55.7027 176.884 54.6251 176.102 53.1804C175.345 51.7119 174.966 49.8764 174.966 47.6738C174.966 45.4712 175.356 43.6475 176.138 42.2027C176.92 40.7343 178.033 39.6448 179.477 38.9343C180.922 38.2238 182.663 37.8685 184.7 37.8685C186.026 37.8685 187.246 38.0225 188.359 38.3304C189.496 38.6383 190.479 39.1119 191.308 39.7514C192.16 40.3909 192.812 41.1962 193.262 42.1672C193.712 43.1383 193.937 44.2988 193.937 45.6488H188.217C188.217 44.8435 188.075 44.1804 187.791 43.6593C187.53 43.1383 187.139 42.7475 186.618 42.4869C186.097 42.2264 185.446 42.0962 184.664 42.0962C183.764 42.0962 183.03 42.2856 182.462 42.6646C181.917 43.0435 181.514 43.6001 181.254 44.3343C180.993 45.0685 180.863 45.9804 180.863 47.0698V48.3488C180.863 49.4146 180.993 50.3146 181.254 51.0488C181.514 51.783 181.941 52.3396 182.533 52.7185C183.125 53.0738 183.883 53.2514 184.806 53.2514C185.612 53.2514 186.275 53.133 186.796 52.8962C187.341 52.6356 187.755 52.2448 188.039 51.7238C188.323 51.179 188.466 50.504 188.466 49.6988H193.937C193.937 51.0014 193.712 52.1501 193.262 53.1448C192.812 54.1159 192.172 54.9212 191.343 55.5606C190.514 56.2001 189.531 56.6856 188.395 57.0172C187.258 57.3251 186.026 57.4791 184.7 57.4791ZM195.83 35.808V31.3317H201.657V35.808H195.83ZM195.83 57.0527V38.3304H201.657V57.0527H195.83ZM209.705 57.0527V32.6462H224.626C225.881 32.6462 227.018 32.8948 228.036 33.3922C229.055 33.8896 229.86 34.5883 230.452 35.4883C231.068 36.3883 231.376 37.4422 231.376 38.6501C231.376 39.7159 231.186 40.6277 230.807 41.3856C230.452 42.1435 229.967 42.7593 229.351 43.233C228.759 43.7067 228.084 44.0619 227.326 44.2988V44.4409C228.202 44.6304 228.996 44.9738 229.706 45.4712C230.417 45.9448 230.973 46.5962 231.376 47.4251C231.802 48.254 232.015 49.2606 232.015 50.4448C232.015 51.8422 231.684 53.0383 231.021 54.033C230.357 55.004 229.481 55.7501 228.392 56.2712C227.302 56.7922 226.082 57.0527 224.732 57.0527H209.705ZM216.064 52.1501H222.992C223.75 52.1501 224.353 51.9251 224.803 51.4751C225.277 51.0251 225.514 50.3383 225.514 49.4146C225.514 48.9172 225.407 48.479 225.194 48.1001C225.005 47.6975 224.709 47.3896 224.306 47.1764C223.927 46.9633 223.453 46.8567 222.885 46.8567H216.064V52.1501ZM216.064 42.3448H222.423C222.944 42.3448 223.382 42.2383 223.738 42.0251C224.117 41.8119 224.401 41.5159 224.59 41.1369C224.803 40.758 224.91 40.308 224.91 39.7869C224.91 39.029 224.685 38.4369 224.235 38.0106C223.785 37.5843 223.217 37.3712 222.53 37.3712H216.064V42.3448ZM242.997 57.4791C240.913 57.4791 239.125 57.1238 237.633 56.4133C236.164 55.7027 235.027 54.6251 234.222 53.1804C233.441 51.7119 233.05 49.8764 233.05 47.6738C233.05 45.4712 233.441 43.6475 234.222 42.2027C235.027 40.758 236.164 39.6804 237.633 38.9698C239.125 38.2593 240.913 37.904 242.997 37.904C245.105 37.904 246.893 38.2593 248.362 38.9698C249.854 39.6804 250.991 40.758 251.772 42.2027C252.577 43.6475 252.98 45.4712 252.98 47.6738C252.98 49.8764 252.577 51.7119 251.772 53.1804C250.991 54.6251 249.854 55.7027 248.362 56.4133C246.893 57.1238 245.105 57.4791 242.997 57.4791ZM242.997 53.2514C243.968 53.2514 244.75 53.0619 245.342 52.683C245.958 52.304 246.396 51.7593 246.656 51.0488C246.941 50.3146 247.083 49.4146 247.083 48.3488V47.0343C247.083 45.9685 246.941 45.0685 246.656 44.3343C246.396 43.6001 245.958 43.0554 245.342 42.7001C244.75 42.3212 243.968 42.1317 242.997 42.1317C242.05 42.1317 241.268 42.3212 240.652 42.7001C240.06 43.0554 239.622 43.6001 239.338 44.3343C239.077 45.0685 238.947 45.9685 238.947 47.0343V48.3488C238.947 49.4146 239.077 50.3146 239.338 51.0488C239.622 51.7593 240.06 52.304 240.652 52.683C241.268 53.0619 242.05 53.2514 242.997 53.2514ZM262.741 57.4791C261.51 57.4791 260.349 57.3488 259.26 57.0883C258.194 56.8277 257.247 56.4488 256.418 55.9514C255.612 55.4541 254.973 54.8383 254.499 54.104C254.049 53.3698 253.824 52.5172 253.824 51.5462C253.824 51.4514 253.824 51.3685 253.824 51.2975C253.824 51.2027 253.836 51.1198 253.86 51.0488H259.366C259.366 51.0962 259.366 51.1554 259.366 51.2264C259.366 51.2738 259.366 51.3212 259.366 51.3685C259.39 51.8896 259.556 52.3277 259.864 52.683C260.195 53.0146 260.622 53.2633 261.143 53.429C261.664 53.5712 262.232 53.6422 262.848 53.6422C263.298 53.6422 263.772 53.5948 264.269 53.5001C264.79 53.4054 265.228 53.2396 265.583 53.0027C265.939 52.7659 266.116 52.4225 266.116 51.9725C266.116 51.4751 265.891 51.0962 265.441 50.8356C265.015 50.5751 264.435 50.3619 263.701 50.1962C262.99 50.0067 262.22 49.829 261.391 49.6633C260.562 49.4738 259.722 49.2606 258.869 49.0238C258.04 48.7869 257.27 48.4672 256.56 48.0646C255.873 47.6383 255.316 47.0935 254.89 46.4304C254.464 45.7672 254.251 44.9264 254.251 43.908C254.251 42.8185 254.476 41.8948 254.926 41.1369C255.399 40.3554 256.039 39.7277 256.844 39.254C257.649 38.7804 258.573 38.4369 259.615 38.2238C260.681 38.0106 261.806 37.904 262.99 37.904C264.08 37.904 265.11 38.0106 266.081 38.2238C267.076 38.4369 267.964 38.7685 268.745 39.2185C269.551 39.6448 270.178 40.2014 270.628 40.8883C271.078 41.5514 271.303 42.333 271.303 43.233C271.303 43.3514 271.291 43.4817 271.268 43.6238C271.268 43.7422 271.268 43.8251 271.268 43.8725H265.797V43.5883C265.797 43.1856 265.666 42.854 265.406 42.5935C265.145 42.333 264.79 42.1317 264.34 41.9896C263.89 41.8238 263.393 41.7409 262.848 41.7409C262.493 41.7409 262.137 41.7764 261.782 41.8475C261.451 41.8948 261.143 41.9777 260.858 42.0962C260.574 42.1909 260.337 42.333 260.148 42.5225C259.982 42.7119 259.899 42.9488 259.899 43.233C259.899 43.5883 260.053 43.8843 260.361 44.1212C260.669 44.3343 261.083 44.5119 261.605 44.654C262.149 44.7962 262.741 44.9501 263.381 45.1159C264.257 45.3054 265.181 45.5067 266.152 45.7198C267.123 45.9093 268.035 46.1935 268.887 46.5725C269.764 46.9277 270.462 47.4725 270.983 48.2067C271.528 48.9172 271.801 49.9001 271.801 51.1554C271.801 52.3396 271.564 53.3462 271.09 54.1751C270.616 54.9804 269.965 55.6317 269.136 56.1291C268.307 56.6027 267.348 56.9462 266.258 57.1593C265.169 57.3725 263.997 57.4791 262.741 57.4791ZM280.082 57.4791C278.874 57.4791 277.844 57.3014 276.991 56.9462C276.162 56.5672 275.534 56.0106 275.108 55.2764C274.706 54.5422 274.504 53.654 274.504 52.6119V42.558H272.053V38.3304H274.682L275.89 32.8593H280.295V38.3304H283.954V42.558H280.295V51.1909C280.295 51.854 280.425 52.3633 280.686 52.7185C280.946 53.0738 281.42 53.2514 282.107 53.2514H283.954V56.8751C283.646 56.9698 283.256 57.0646 282.782 57.1593C282.332 57.2777 281.87 57.3606 281.396 57.408C280.923 57.4554 280.484 57.4791 280.082 57.4791ZM294.462 57.4791C292.377 57.4791 290.589 57.1238 289.097 56.4133C287.629 55.7027 286.492 54.6251 285.687 53.1804C284.905 51.7119 284.514 49.8764 284.514 47.6738C284.514 45.4712 284.905 43.6475 285.687 42.2027C286.492 40.758 287.629 39.6804 289.097 38.9698C290.589 38.2593 292.377 37.904 294.462 37.904C296.57 37.904 298.358 38.2593 299.826 38.9698C301.318 39.6804 302.455 40.758 303.237 42.2027C304.042 43.6475 304.445 45.4712 304.445 47.6738C304.445 49.8764 304.042 51.7119 303.237 53.1804C302.455 54.6251 301.318 55.7027 299.826 56.4133C298.358 57.1238 296.57 57.4791 294.462 57.4791ZM294.462 53.2514C295.433 53.2514 296.214 53.0619 296.806 52.683C297.422 52.304 297.86 51.7593 298.121 51.0488C298.405 50.3146 298.547 49.4146 298.547 48.3488V47.0343C298.547 45.9685 298.405 45.0685 298.121 44.3343C297.86 43.6001 297.422 43.0554 296.806 42.7001C296.214 42.3212 295.433 42.1317 294.462 42.1317C293.514 42.1317 292.733 42.3212 292.117 42.7001C291.525 43.0554 291.087 43.6001 290.802 44.3343C290.542 45.0685 290.412 45.9685 290.412 47.0343V48.3488C290.412 49.4146 290.542 50.3146 290.802 51.0488C291.087 51.7593 291.525 52.304 292.117 52.683C292.733 53.0619 293.514 53.2514 294.462 53.2514ZM306.177 57.0527V38.3304H310.973L311.399 40.9948H311.648C312.122 40.3554 312.667 39.7988 313.282 39.3251C313.898 38.8514 314.597 38.4962 315.378 38.2593C316.16 38.0225 316.989 37.904 317.865 37.904C319.215 37.904 320.352 38.1527 321.276 38.6501C322.223 39.1475 322.945 39.8935 323.443 40.8883C323.94 41.883 324.189 43.1501 324.189 44.6896V57.0527H318.363V45.5067C318.363 44.9856 318.292 44.5475 318.149 44.1922C318.031 43.8133 317.853 43.4935 317.617 43.233C317.38 42.9725 317.084 42.783 316.728 42.6646C316.373 42.5462 315.97 42.4869 315.52 42.4869C314.834 42.4869 314.23 42.6527 313.709 42.9843C313.188 43.2922 312.773 43.7185 312.465 44.2633C312.157 44.7843 312.003 45.4001 312.003 46.1106V57.0527H306.177Z" fill="#A4FAF3"/>
<path fill-rule="evenodd" clip-rule="evenodd" d="M83.1819 38.4288C83.1819 17.3499 66.2554 0.0894779 45.3077 0H45.0452C24.0144 0 6.90856 17.2567 6.90856 38.4288C6.90856 59.6009 24.0144 76.8576 45.0452 76.8576L45.302 76.8577L45.3133 76.8576C66.2515 76.6785 83.1819 59.5129 83.1819 38.4288ZM57.201 16.4501C54.6975 11.3668 51.4985 7.97559 48.1684 6.69559V70.162C51.4982 68.882 54.6969 65.4908 57.2005 60.4075C60.0638 54.5939 61.8691 46.8384 61.8694 38.4288C61.8694 30.0192 60.0642 22.2637 57.201 16.4501ZM42.0935 70.2382V6.67445C38.7284 7.92063 35.505 11.3126 32.9857 16.4186C30.1123 22.2422 28.307 30.0187 28.307 38.4288C28.307 46.8383 30.1122 54.5933 32.9858 60.4173C35.4993 65.5116 38.7208 68.9285 42.0935 70.2382ZM77.1073 38.4288C77.1073 50.4636 70.5342 60.9534 60.8387 66.5222C65.2355 59.5101 67.858 49.5088 67.858 38.4288C67.858 27.3272 65.2253 17.3085 60.8129 10.2944C70.518 15.8183 77.1073 26.3768 77.1073 38.4288ZM22.2327 38.4288C22.2327 27.2454 24.927 17.2096 29.364 10.1949C19.5884 15.7305 12.9832 26.3617 12.9832 38.4288C12.9832 50.4796 19.5724 61.0422 29.3389 66.6225C24.9171 59.6098 22.2327 49.5912 22.2327 38.4288ZM9.78558 64.8208L8.23376 62.9439L3.63232 71.5572L6.02976 73.7933C29.1264 95.3359 65.2414 94.34 87.1156 71.5572L83.1715 62.9439C65.107 87.221 29.0675 88.1428 9.78558 64.8208Z" fill="url(#paint0_linear_754_5)"/>
<defs>
<linearGradient id="paint0_linear_754_5" x1="45.0452" y1="0" x2="45.0452" y2="76.8577" gradientUnits="userSpaceOnUse">
<stop offset="0.161458" stop-color="#A4FAF3"/>
<stop offset="0.635417" stop-color="#799FF1"/>
<stop offset="1" stop-color="#947BD3"/>
</linearGradient>
</defs>
</svg>
