<svg width="474" height="91" viewBox="0 0 474 91" fill="none" xmlns="http://www.w3.org/2000/svg">
<g clip-path="url(#clip0_134_2)">
<path d="M274.21 10.5702C275.93 10.5491 277.641 10.8194 279.27 11.37C280.731 11.8734 282.056 12.7085 283.14 13.81C284.248 14.9662 285.088 16.3524 285.6 17.87C286.209 19.6969 286.5 21.6147 286.46 23.54C286.546 26.177 285.99 28.7959 284.84 31.1703C283.838 33.1533 282.254 34.7827 280.3 35.8403C278.174 36.9428 275.804 37.4896 273.41 37.4301H262.2V34.6801L265.75 33.6801L265.02 34.79V13.4203L265.82 14.5302L262.2 13.5302V10.7802L270.86 10.5903L274.21 10.5702ZM273.68 33.5004C274.507 33.5 275.33 33.3751 276.12 33.1303C276.965 32.8745 277.732 32.4102 278.35 31.7802C279.119 30.9586 279.678 29.9639 279.98 28.8803C280.427 27.2526 280.633 25.5679 280.59 23.8803C280.638 22.2405 280.442 20.6023 280.01 19.0199C279.73 17.9743 279.209 17.0087 278.49 16.2001C277.909 15.5844 277.179 15.1298 276.37 14.8803C275.621 14.6557 274.842 14.5409 274.06 14.54H269.64L270.48 13.7001V34.3803L269.64 33.54L273.68 33.5004Z" fill="#222222"/>
<path d="M298.9 37.8802C297.204 37.9231 295.525 37.5231 294.03 36.7201C292.624 35.9199 291.49 34.7185 290.77 33.2699C289.931 31.5079 289.526 29.5705 289.59 27.62C289.534 25.5799 289.959 23.5557 290.83 21.7103C291.595 20.1282 292.809 18.8062 294.32 17.91C295.937 17.0041 297.768 16.5514 299.62 16.5999C301.316 16.5243 302.998 16.9338 304.47 17.7801C305.694 18.5478 306.653 19.6716 307.22 21.0003C307.818 22.4589 308.115 24.0235 308.09 25.5999C308.09 26.0299 308.09 26.4602 308.04 26.8802C307.99 27.3002 307.94 27.7599 307.86 28.2699H293.86V25.0999H303.25L302.56 25.5999C302.597 24.695 302.506 23.7896 302.29 22.91C302.134 22.2085 301.759 21.5746 301.22 21.0999C300.625 20.6372 299.882 20.4063 299.13 20.45C298.258 20.4161 297.407 20.7246 296.76 21.3099C296.117 21.9413 295.666 22.7424 295.46 23.62C294.921 25.8792 294.956 28.2377 295.56 30.4803C295.826 31.4677 296.392 32.3483 297.18 33.0003C298.042 33.6468 299.103 33.9721 300.18 33.9203C301.112 33.9001 302.036 33.7382 302.92 33.4403C304.016 33.0884 305.067 32.6082 306.05 32.0101L307.88 34.87C306.482 35.8373 304.953 36.6016 303.34 37.14C301.909 37.6208 300.41 37.8708 298.9 37.8802Z" fill="#222222"/>
<path d="M317.33 17.3201C317.319 17.6617 317.381 18.0016 317.512 18.3172C317.643 18.6328 317.84 18.9168 318.09 19.1502C318.674 19.6838 319.352 20.104 320.09 20.3899C320.91 20.7399 321.81 21.0699 322.8 21.3899C323.79 21.7099 324.8 22.0702 325.74 22.4602C326.692 22.8487 327.595 23.3486 328.43 23.95C329.264 24.5408 329.949 25.3181 330.43 26.22C330.963 27.2825 331.221 28.4621 331.18 29.6502C331.248 31.3274 330.728 32.9754 329.71 34.3098C328.684 35.5635 327.33 36.5084 325.8 37.0398C324.059 37.6499 322.224 37.9512 320.38 37.93C318.99 37.9277 317.604 37.7938 316.24 37.5301C314.813 37.255 313.415 36.8532 312.06 36.3299L312.25 29.0799H315.42L316.22 33.7L315.73 32.7801C317.273 33.4944 318.95 33.8726 320.65 33.8899C321.528 33.8973 322.401 33.7692 323.24 33.51C323.963 33.2974 324.611 32.885 325.11 32.3201C325.583 31.7636 325.829 31.0497 325.8 30.3201C325.814 29.9643 325.757 29.6094 325.632 29.2762C325.506 28.9429 325.315 28.6382 325.07 28.3802C324.502 27.8157 323.82 27.379 323.07 27.0999C322.24 26.7499 321.34 26.4399 320.38 26.0999C319.42 25.7599 318.44 25.4699 317.46 25.0999C316.5 24.7313 315.589 24.2445 314.75 23.6502C313.913 23.0787 313.227 22.3137 312.75 21.4202C312.226 20.362 311.976 19.1898 312.02 18.01C311.952 16.424 312.408 14.8596 313.32 13.5598C314.216 12.3725 315.435 11.4669 316.83 10.95C318.425 10.3393 320.122 10.0407 321.83 10.0701C323.214 10.0767 324.593 10.2173 325.95 10.49C327.408 10.7817 328.837 11.2037 330.22 11.7503L329.8 18.43H326.56L325.76 14.2698L326.37 14.8802C325.708 14.6166 325.021 14.4186 324.32 14.2898C323.598 14.1497 322.865 14.0794 322.13 14.0799C321.318 14.0699 320.51 14.178 319.73 14.4002C319.06 14.5739 318.446 14.9185 317.95 15.4002C317.724 15.6628 317.553 15.9679 317.446 16.2976C317.34 16.6274 317.3 16.9749 317.33 17.3201V17.3201Z" fill="#222222"/>
<path d="M343.5 37.8802C341.833 37.9062 340.191 37.4773 338.75 36.6399C337.318 35.7985 336.159 34.5626 335.41 33.0799C334.553 31.3229 334.134 29.3842 334.19 27.43C334.138 25.6979 334.437 23.9734 335.07 22.3601C335.584 21.0771 336.392 19.9326 337.43 19.0198C338.397 18.1814 339.528 17.552 340.75 17.1702C341.974 16.7897 343.248 16.5971 344.53 16.5999C345.776 16.6033 347.019 16.7545 348.23 17.0501C349.26 17.284 350.265 17.6189 351.23 18.0501L351.08 23.6599H347.65L347.07 20.5301L347.49 20.8401C347.042 20.6695 346.576 20.5555 346.1 20.5003C345.6 20.424 345.095 20.3838 344.59 20.3802C343.617 20.3422 342.66 20.6306 341.87 21.2C341.106 21.7963 340.538 22.608 340.24 23.5301C339.865 24.682 339.686 25.8886 339.71 27.0999C339.674 28.3707 339.881 29.6366 340.32 30.8299C340.66 31.7545 341.265 32.5581 342.06 33.1399C342.828 33.6651 343.74 33.9381 344.67 33.9202C345.555 33.9042 346.43 33.7383 347.26 33.43C348.295 33.0508 349.282 32.5509 350.2 31.9402L351.99 34.6502C350.698 35.6703 349.258 36.4864 347.72 37.0701C346.371 37.5842 344.943 37.8584 343.5 37.8802V37.8802Z" fill="#222222"/>
<path d="M361.85 34.2602L361.47 33.8002L364.41 34.64V37.39H353.95V34.64L356.89 33.8002L356.51 34.2602V20.33L356.85 20.6801L353.95 19.87V17.1303L361.85 16.8603V34.2602ZM359.03 13.89C358.196 13.9294 357.38 13.6383 356.76 13.08C356.461 12.7839 356.23 12.427 356.082 12.0336C355.933 11.6402 355.871 11.2197 355.9 10.8002C355.864 10.3609 355.924 9.91885 356.078 9.50577C356.232 9.09268 356.475 8.71859 356.79 8.41006C357.424 7.87861 358.233 7.60097 359.06 7.63028C359.872 7.6019 360.664 7.88018 361.28 8.41006C361.586 8.7159 361.822 9.08452 361.972 9.49014C362.122 9.89576 362.183 10.3289 362.15 10.7602C362.184 11.1918 362.122 11.6255 361.968 12.0302C361.814 12.4349 361.572 12.8004 361.26 13.1C360.646 13.6452 359.851 13.9413 359.03 13.9301V13.89Z" fill="#222222"/>
<path d="M262.2 81.8098V79.0598L265.59 78.0598L265.02 78.8601V57.76L265.78 58.8699L262.2 57.8699V55.1199L270.36 54.9299H281.42V61.8699H278.18L277.46 58.2898L278.46 58.8601H269.61L270.45 58.0198V67.1399L269.61 66.3699H278.5V70.3H269.61L270.45 69.4299V78.8499L269.76 78.05L273.92 79.05V81.8L262.2 81.8098Z" fill="#222222"/>
<path d="M292.49 60.9802C293.779 60.9087 295.068 61.109 296.274 61.5691C297.48 62.0291 298.576 62.7384 299.49 63.6501C301.17 65.4301 302.01 67.96 302.01 71.24C302.063 73.2711 301.646 75.2872 300.79 77.1301C300.021 78.716 298.8 80.0382 297.28 80.9299C295.598 81.8565 293.699 82.3158 291.78 82.26C290.49 82.3438 289.197 82.149 287.989 81.6882C286.781 81.2275 285.686 80.5118 284.78 79.5901C283.14 77.8101 282.32 75.2802 282.32 72.0002C282.265 69.9711 282.676 67.9562 283.52 66.1101C284.266 64.5281 285.467 63.2046 286.97 62.3098C288.653 61.3689 290.563 60.9092 292.49 60.9802V60.9802ZM292.22 64.7898C291.576 64.7545 290.936 64.8943 290.366 65.1936C289.795 65.4929 289.316 65.9407 288.98 66.49C288.157 68.1117 287.788 69.9256 287.91 71.74C287.768 73.5092 288.114 75.2834 288.91 76.8699C289.246 77.3859 289.712 77.8043 290.262 78.0818C290.812 78.3593 291.425 78.4861 292.04 78.4499C292.93 78.4919 293.806 78.2235 294.52 77.6902C295.224 77.075 295.729 76.2637 295.97 75.3601C296.33 74.1093 296.498 72.8112 296.47 71.51C296.596 69.7435 296.225 67.9767 295.4 66.4099C295.057 65.886 294.583 65.4612 294.025 65.177C293.467 64.8928 292.845 64.7591 292.22 64.7898V64.7898Z" fill="#222222"/>
<path d="M312.63 82.26C311.844 82.2816 311.062 82.1468 310.329 81.8635C309.596 81.5803 308.927 81.1544 308.36 80.6101C307.749 79.9366 307.282 79.1459 306.987 78.2864C306.691 77.4269 306.573 76.5166 306.64 75.6101V64.47L307.14 65.2302L304.14 64.3201V61.5701L311.99 61.3V74.7302C311.91 75.6847 312.2 76.6331 312.8 77.3801C313.073 77.6675 313.404 77.8929 313.771 78.0413C314.139 78.1896 314.534 78.2573 314.93 78.24C315.717 78.2195 316.491 78.0322 317.2 77.6902C318.116 77.2598 318.949 76.6705 319.66 75.95L319.28 76.95V64.3899L319.78 65.2698L316.78 64.3601V61.6101L324.64 61.3401V79.0398L323.99 78.1301L327.2 79.1301V81.8401L320.48 82.1399L319.76 78.4099L320.52 78.6702C319.371 79.8069 318.035 80.7372 316.57 81.4202C315.331 81.9777 313.988 82.264 312.63 82.26V82.26Z" fill="#222222"/>
<path d="M329.42 81.8099V79.0599L332.62 78.14L331.97 78.91V64.37L332.62 65.2504L329.42 64.3002V61.5502L336.13 61.2401L336.82 64.91L336.13 64.64C337.235 63.4739 338.557 62.5332 340.02 61.87C341.256 61.3097 342.593 61.0073 343.95 60.9803C344.739 60.9533 345.527 61.0822 346.267 61.3602C347.006 61.6382 347.683 62.0594 348.26 62.6C348.872 63.2503 349.339 64.024 349.629 64.869C349.919 65.714 350.025 66.6111 349.94 67.5004V78.91L349.45 78.14L352.5 79.0599V81.8099H342.31V79.0599L345.21 78.2201L344.6 79.0199V68.6503C344.686 67.6627 344.393 66.6794 343.78 65.9003C343.506 65.6072 343.172 65.3769 342.801 65.225C342.43 65.0731 342.031 65.0028 341.63 65.0199C340.847 65.0426 340.079 65.2375 339.38 65.5902C338.487 66.0266 337.673 66.6075 336.97 67.3099L337.32 66.5101V79.0199L336.82 78.2201L339.6 79.0599V81.8099H329.42Z" fill="#222222"/>
<path d="M362.23 82.26C360.838 82.2891 359.471 81.8834 358.32 81.0999C357.116 80.2313 356.189 79.0335 355.65 77.6501C354.946 75.8793 354.606 73.9848 354.65 72.0798C354.65 68.3132 355.603 65.52 357.51 63.7C359.416 61.88 362.1 60.9736 365.56 60.9802C366.12 60.9802 366.68 60.98 367.24 61.05C367.828 61.1046 368.412 61.1948 368.99 61.3201L367.99 61.9299V55.6399L368.37 56.1702L365.24 55.1702V52.4602L373.33 52.1501V78.8601L372.679 78.0999L375.89 79.0999V81.8098L369.17 82.1101L368.49 78.8298L369.02 79.0198C368.044 80.014 366.916 80.8478 365.679 81.49C364.603 82.0049 363.423 82.2683 362.23 82.26V82.26ZM364.29 78.3401C365.024 78.3193 365.743 78.1275 366.39 77.78C367.222 77.3444 367.992 76.7994 368.679 76.1599L368.03 77.76V64.0701L368.679 65.2898C367.623 64.9794 366.53 64.8112 365.429 64.7898C364.673 64.7295 363.914 64.8645 363.224 65.1814C362.534 65.4983 361.937 65.9865 361.49 66.5999C360.581 68.1031 360.149 69.8462 360.25 71.5999C360.225 72.8147 360.39 74.0263 360.74 75.1902C360.993 76.0773 361.472 76.8835 362.13 77.53C362.718 78.0687 363.492 78.3591 364.29 78.3401Z" fill="#222222"/>
<path d="M395.16 79.0998L394.43 77.9899L397.71 79.0597V81.8097L391.04 82.07L390.31 78.4499L390.69 78.5597C389.777 79.7011 388.641 80.6438 387.35 81.3298C386.217 81.9327 384.954 82.252 383.67 82.2599C382.933 82.2786 382.2 82.1503 381.513 81.8825C380.826 81.6147 380.2 81.2125 379.67 80.6999C379.109 80.0993 378.678 79.39 378.403 78.6159C378.128 77.8418 378.014 77.0195 378.07 76.1999C378.005 74.9802 378.331 73.7719 379 72.7502C379.682 71.8504 380.642 71.2002 381.73 70.9001C383.141 70.4809 384.609 70.2851 386.08 70.32H390.2L389.85 70.7399V68.2599C389.897 67.7974 389.846 67.3301 389.699 66.8889C389.553 66.4476 389.315 66.0423 389 65.6999C388.289 65.1476 387.399 64.8772 386.5 64.9401C385.918 64.9416 385.336 64.9849 384.76 65.07C384.08 65.1681 383.41 65.3288 382.76 65.55L383.29 64.9401L382.79 68.0998H379.47L379.17 62.4601C380.9 62.0001 382.48 61.6398 383.92 61.3898C385.223 61.1458 386.545 61.0187 387.87 61.0099C389.797 60.8823 391.71 61.4187 393.29 62.53C393.942 63.1236 394.449 63.8586 394.773 64.6784C395.097 65.4982 395.23 66.3811 395.16 67.2599V79.0998ZM383.41 75.6999C383.352 76.4465 383.589 77.1862 384.07 77.7599C384.284 77.9839 384.541 78.1607 384.827 78.2795C385.113 78.3983 385.421 78.4564 385.73 78.4499C386.49 78.4323 387.233 78.2225 387.89 77.84C388.691 77.3953 389.428 76.8434 390.08 76.1999L389.81 77.11V72.7697L390.2 73.1501H386.92C385.959 73.0555 384.994 73.2766 384.17 73.78C383.907 74.0215 383.702 74.3202 383.572 74.653C383.442 74.9858 383.39 75.3438 383.42 75.6999H383.41Z" fill="#222222"/>
<path d="M407.25 82.26C406.507 82.3152 405.762 82.2016 405.069 81.928C404.376 81.6544 403.755 81.2278 403.25 80.6799C402.254 79.3206 401.775 77.6506 401.9 75.97V64.26L402.58 64.9402H398.92V62.0798L402.66 61.2L401.9 62.1199V56.9299L407.28 55.9802V62.1199L406.7 61.3899H412.5L412.43 64.9402H406.7L407.28 64.26V75.26C407.209 76.0825 407.394 76.9068 407.81 77.6199C407.997 77.8628 408.241 78.0566 408.52 78.1838C408.798 78.3111 409.104 78.3678 409.41 78.3499C409.871 78.342 410.328 78.2714 410.77 78.1399C411.26 77.9999 411.77 77.8098 412.39 77.5798L413.39 80.5198C411.523 81.6093 409.411 82.2081 407.25 82.26V82.26Z" fill="#222222"/>
<path d="M423.31 78.6801L422.93 78.2202L425.87 79.06V81.81H415.42V79.06L418.36 78.2202L417.98 78.6801V64.7505L418.32 65.1001L415.42 64.3003V61.5503L423.32 61.2802L423.31 78.6801ZM420.49 58.31C419.656 58.3494 418.84 58.0588 418.22 57.5005C417.921 57.2044 417.69 56.8475 417.542 56.4541C417.393 56.0607 417.331 55.6397 417.36 55.2202C417.325 54.7801 417.387 54.3379 417.543 53.9248C417.699 53.5117 417.943 53.1377 418.26 52.8301C418.892 52.2952 419.702 52.0171 420.53 52.0503C421.338 52.0224 422.128 52.3008 422.74 52.8301C423.047 53.135 423.286 53.503 423.438 53.9087C423.589 54.3143 423.652 54.7481 423.62 55.1801C423.653 55.6125 423.588 56.0465 423.433 56.4511C423.277 56.8558 423.034 57.2208 422.72 57.52C422.103 58.055 421.306 58.3372 420.49 58.31Z" fill="#222222"/>
<path d="M438.269 60.9802C439.558 60.9087 440.848 61.109 442.055 61.5691C443.261 62.0291 444.356 62.7384 445.269 63.6501C446.936 65.4301 447.773 67.96 447.78 71.24C447.84 73.2717 447.421 75.2891 446.559 77.1301C445.797 78.7202 444.574 80.044 443.05 80.9299C441.372 81.8579 439.476 82.3174 437.559 82.26C436.269 82.3438 434.976 82.149 433.768 81.6882C432.561 81.2275 431.466 80.5118 430.559 79.5901C428.919 77.8101 428.1 75.2802 428.1 72.0002C428.045 69.9711 428.456 67.9562 429.3 66.1101C430.046 64.5281 431.247 63.2046 432.75 62.3098C434.433 61.3689 436.342 60.9092 438.269 60.9802V60.9802ZM438 64.7898C437.357 64.7545 436.716 64.8943 436.145 65.1936C435.575 65.4929 435.096 65.9407 434.76 66.49C433.932 68.1101 433.562 69.9252 433.689 71.74C433.548 73.5092 433.893 75.2834 434.689 76.8699C435.025 77.3867 435.491 77.8052 436.041 78.0827C436.591 78.3603 437.205 78.4872 437.82 78.4499C438.71 78.4903 439.585 78.222 440.3 77.6902C440.998 77.0697 441.501 76.2604 441.75 75.3601C442.106 74.1087 442.272 72.8107 442.24 71.51C442.371 69.7431 442 67.9751 441.17 66.4099C440.829 65.8868 440.357 65.4621 439.801 65.178C439.245 64.8938 438.624 64.7599 438 64.7898V64.7898Z" fill="#222222"/>
<path d="M450.63 81.8099V79.0599L453.83 78.14L453.18 78.91V64.37L453.83 65.2504L450.63 64.3002V61.5502L457.34 61.2401L458.03 64.91L457.34 64.64C458.445 63.4739 459.766 62.5332 461.229 61.87C462.466 61.3097 463.803 61.0073 465.16 60.9803C465.95 60.9533 466.737 61.0822 467.477 61.3602C468.216 61.6382 468.893 62.0594 469.47 62.6C470.082 63.2503 470.549 64.024 470.839 64.869C471.129 65.714 471.235 66.6111 471.15 67.5004V78.91L470.66 78.14L473.71 79.0599V81.8099H463.52V79.0599L466.42 78.2201L465.81 79.0199V68.6503C465.896 67.6627 465.603 66.6794 464.99 65.9003C464.716 65.6077 464.382 65.3778 464.011 65.2259C463.64 65.0741 463.24 65.0035 462.84 65.0199C462.054 65.0437 461.283 65.2386 460.58 65.5902C459.692 66.0291 458.881 66.6098 458.18 67.3099L458.52 66.5101V79.0199L458.03 78.2201L460.81 79.0599V81.8099H450.63Z" fill="#222222"/>
<path d="M217.08 19.82C217.084 15.7746 215.849 11.8249 213.54 8.50266C211.232 5.18046 207.961 2.64534 204.168 1.23801C200.375 -0.169316 196.242 -0.381227 192.325 0.631079C188.409 1.64338 184.896 3.83126 182.26 6.90012C176.323 4.74651 170.045 3.68923 163.73 3.78C139.95 3.78 124.84 15.61 111.33 29.57C92.1403 14.77 71.0701 0.570043 43.9001 0.570043C4.17011 0.570043 -9.29966 39.9802 6.39034 63.2102C5.50938 67.5404 6.10136 72.0408 8.07247 75.9958C10.0436 79.9508 13.2804 83.1331 17.2683 85.0368C21.2561 86.9405 25.7661 87.456 30.0808 86.5017C34.3954 85.5474 38.2673 83.1777 41.0803 79.7698H41.49C66.2 79.7698 82.0102 67.8397 95.7902 53.7697C115.08 71.6297 133.48 90.2698 159.79 90.2698C192.08 90.2698 209.13 61.79 206.03 37.51C209.336 35.8825 212.123 33.3644 214.075 30.239C216.027 27.1136 217.068 23.5051 217.08 19.82ZM44.3601 74.05C46.0922 69.3837 46.0032 64.2363 44.111 59.6325C42.2189 55.0288 38.6626 51.3067 34.1496 49.2072C29.6367 47.1078 24.4982 46.7847 19.758 48.303C15.0178 49.8212 11.0234 53.0694 8.57003 57.4001C-0.22997 42.0601 7.38003 21.6799 33.57 21.6799C57.75 21.6799 75.4002 35.24 91.9802 50.3C79.4202 62.9 65.4201 73.32 44.3601 74.05ZM172.81 62.55C152.36 62.55 134.71 47.8402 115.42 32.7502C128.06 19.8102 141.88 9.23997 162.59 9.23997C168.205 9.17155 173.788 10.0818 179.09 11.9299C177.668 15.1512 177.133 18.6946 177.542 22.1921C177.951 25.6897 179.289 29.014 181.417 31.82C183.544 34.6261 186.384 36.8115 189.641 38.1496C192.899 39.4878 196.454 39.9299 199.94 39.4299C199.71 51.4799 190.62 62.55 172.81 62.55V62.55Z" fill="black"/>
</g>
<defs>
<clipPath id="clip0_134_2">
<rect width="473.71" height="90.31" fill="white"/>
</clipPath>
</defs>
</svg>
