<svg width="270" height="269" viewBox="0 0 270 269" fill="none" xmlns="http://www.w3.org/2000/svg">
<rect width="268" height="269" fill="black"/>
<ellipse cx="131.22" cy="134.593" rx="131.22" ry="134.227" fill="white"/>
<path fill-rule="evenodd" clip-rule="evenodd" d="M1.15065e-05 268.82L0 0.365234H0.182765L0.182777 268.82H1.15065e-05Z" fill="black"/>
<path fill-rule="evenodd" clip-rule="evenodd" d="M7.29521 268.82L7.29519 0.365234L7.65234 0.365234L7.65236 268.82L7.29521 268.82Z" fill="black"/>
<path fill-rule="evenodd" clip-rule="evenodd" d="M14.6805 0.365234L15.127 0.365234L15.127 268.82L14.6805 268.82L14.6805 0.365234Z" fill="black"/>
<path fill-rule="evenodd" clip-rule="evenodd" d="M22.0639 268.82L22.0639 0.365234L22.5996 0.365234L22.5996 268.82L22.0639 268.82Z" fill="black"/>
<path fill-rule="evenodd" clip-rule="evenodd" d="M29.3588 268.82L29.3588 0.365234L29.8945 0.365234L29.8945 268.82L29.3588 268.82Z" fill="black"/>
<path fill-rule="evenodd" clip-rule="evenodd" d="M36.4512 268.82L36.4511 0.365234L37.1875 0.365234L37.1875 83.9026L36.6518 84.4506L36.6518 119.614L37.1875 120.345L37.1875 268.82L36.4512 268.82Z" fill="black"/>
<path fill-rule="evenodd" clip-rule="evenodd" d="M43.7396 268.82L43.7396 0.365234L44.6582 0.365234L44.6582 63.0785L43.9861 63.8092L43.9861 132.309L44.6582 132.766L44.6582 268.82L43.7396 268.82Z" fill="black"/>
<path fill-rule="evenodd" clip-rule="evenodd" d="M51.0292 268.82L51.0292 0.365234L52.3086 0.365234L52.3086 52.4839L51.3072 53.2145L51.3072 140.073L52.3086 140.621L52.3086 268.82L51.0292 268.82Z" fill="black"/>
<path fill-rule="evenodd" clip-rule="evenodd" d="M58.3181 268.82L58.3181 0.365234L58.6276 0.365234L58.6276 122.628L60.1406 123.359L60.1406 134.136L58.6276 135.141L58.6276 144.548L60.1406 145.187L60.1406 268.82L58.3181 268.82Z" fill="black"/>
<path fill-rule="evenodd" clip-rule="evenodd" d="M65.6078 268.82L65.6078 0.365235L66.0381 0.365234L66.0381 112.947L67.2481 113.312L67.2481 135.141L66.0381 135.415L66.0381 152.585L67.2481 152.859L67.2481 268.82L65.6078 268.82Z" fill="black"/>
<path fill-rule="evenodd" clip-rule="evenodd" d="M72.3552 268.82L72.3552 0.365234L72.8281 0.365234L72.8281 114.317L74.1777 114.865L74.1777 143.635L72.8281 144.365L72.8281 159.07L74.1777 159.527L74.1777 268.82L72.3552 268.82Z" fill="black"/>
<path fill-rule="evenodd" clip-rule="evenodd" d="M80.1906 268.82L80.1906 0.365234L80.6841 0.365234L80.6841 115.778L82.1953 116.235L82.1953 155.782L80.6841 156.147L80.6841 168.021L82.1953 168.295L82.1953 268.82L80.1906 268.82Z" fill="black"/>
<path fill-rule="evenodd" clip-rule="evenodd" d="M87.481 269L87.481 0.54541L88.0953 0.54541L87.8822 23.1633L87.8822 24.8073L88.0953 113.583L89.668 114.131L89.668 160.986L88.0953 161.716L88.0953 169.114L89.668 170.028L89.668 179.161L88.0953 180.166L88.0953 204.369L89.668 205.191L89.668 269L87.481 269Z" fill="black"/>
<path fill-rule="evenodd" clip-rule="evenodd" d="M94.7694 268.82L94.7694 0.365234L97.1387 0.365234L97.1387 53.6712L95.5046 54.6759L95.5046 107.01L97.1387 107.832L97.1387 158.522L95.5046 159.253L95.5046 214.51L97.1387 215.423L97.1387 268.82L94.7694 268.82Z" fill="black"/>
<path fill-rule="evenodd" clip-rule="evenodd" d="M102.062 268.82L102.062 0.365234L104.613 0.365234L104.613 42.7112L104.613 43.6245L104.613 60.8865L102.828 62.5305L102.828 98.0593L104.613 99.064L104.613 158.157L102.828 159.161L102.828 220.355L104.613 221.36L104.613 268.82L102.062 268.82Z" fill="black"/>
<path fill-rule="evenodd" clip-rule="evenodd" d="M109.349 268.82L109.349 0.365235L112.083 0.365234L112.98 46.5472L110.27 48.1912L110.297 93.2186L112.083 94.5886L112.083 159.801L110.297 160.714L110.297 261.181L112.083 262.277L112.083 268.82L109.349 268.82Z" fill="black"/>
<path fill-rule="evenodd" clip-rule="evenodd" d="M116.641 268.82L116.641 0.365235L119.557 0.365234L119.557 49.3785L117.828 51.2052L117.828 88.0126L119.557 89.5653L119.557 162.358L117.828 163.637L117.828 261.546L119.557 262.734L119.557 268.82L116.641 268.82Z" fill="black"/>
<path fill-rule="evenodd" clip-rule="evenodd" d="M123.929 268.82L123.929 0.365235L127.027 0.365234L127.027 51.4792L125.326 52.4839L125.326 83.8113L127.027 85.3639L127.027 159.709L125.326 161.901L125.326 255.518L127.027 256.432L127.027 268.82L123.929 268.82Z" fill="black"/>
<path fill-rule="evenodd" clip-rule="evenodd" d="M131.218 268.82L131.218 0.365235L134.498 0.365234L134.498 60.9779L132.735 62.1652L132.735 82.2586L134.498 83.9939L134.498 168.203L132.735 169.299L132.735 252.23L134.498 253.235L134.498 268.82L131.218 268.82Z" fill="black"/>
<path fill-rule="evenodd" clip-rule="evenodd" d="M138.512 268.82L138.512 253.6L138.512 251.5L138.512 171.217L138.512 169.025L138.512 0.365235L141.975 0.365234L141.975 169.208L140.367 170.487L140.367 251.865L141.975 253.6L141.975 268.82L138.512 268.82Z" fill="black"/>
<path fill-rule="evenodd" clip-rule="evenodd" d="M145.798 268.82L145.798 250.404L145.798 247.846L145.798 175.967L145.798 173.409L145.798 0.365235L149.443 0.365234L149.443 175.419L147.658 177.976L147.658 245.654L149.443 248.029L149.443 268.82L145.798 268.82Z" fill="black"/>
<path fill-rule="evenodd" clip-rule="evenodd" d="M153.089 268.82L153.089 245.563L153.089 242.549L153.089 181.812L153.089 179.163L153.089 0.365235L156.916 0.365234L156.916 180.716L155.309 182.999L155.309 240.631L156.916 242.549L156.916 268.82L153.089 268.82Z" fill="black"/>
<path fill-rule="evenodd" clip-rule="evenodd" d="M160.377 268.82L160.377 237.8L160.377 234.694L160.377 191.311L160.377 188.753L160.377 0.365235L164.387 0.365234L164.387 192.955L163.315 194.325L163.315 232.868L164.387 234.055L164.387 268.82L160.377 268.82Z" fill="black"/>
<path fill-rule="evenodd" clip-rule="evenodd" d="M167.672 268.82L167.672 231.315L167.672 228.758L167.672 199.896L167.672 197.247L167.672 0.365235L171.863 0.365234L171.863 197.247L170.97 198.617L170.97 227.296L171.863 228.758L171.863 268.82L167.672 268.82Z" fill="black"/>
<path fill-rule="evenodd" clip-rule="evenodd" d="M174.96 268.82L174.96 222.456L174.96 220.355L174.96 197.43L174.96 194.69L174.96 0.365235L179.334 0.365234L179.334 198.891L178.62 200.353L178.62 221.086L179.334 222.456L179.334 268.82L174.96 268.82Z" fill="black"/>
<path fill-rule="evenodd" clip-rule="evenodd" d="M181.538 268.82L181.538 213.779L181.538 211.678L181.538 202.18L181.538 199.622L181.538 32.7559L184.395 31.2032L184.395 9.99244e-08L186.809 0.365334L186.809 204.006L186.273 205.468L186.273 210.674L186.809 212.044L186.809 268.82L181.538 268.82Z" fill="black"/>
<path fill-rule="evenodd" clip-rule="evenodd" d="M188.275 268.82L188.275 56.7765L191.327 55.3152L191.327 44.9032L188.275 43.6245L188.275 0.365235L194.279 0.365234L194.279 268.82L188.275 268.82Z" fill="black"/>
<path fill-rule="evenodd" clip-rule="evenodd" d="M195.581 268.82L195.581 59.7905L198.097 58.7859L198.097 49.1958L195.403 47.9172L195.403 0.365235L201.752 0.365234L201.752 268.82L195.581 268.82Z" fill="black"/>
<path fill-rule="evenodd" clip-rule="evenodd" d="M203.048 268.82L203.048 80.8886L205.417 79.5186L205.417 0.365235L209.223 0.365234L209.223 268.82L203.048 268.82Z" fill="black"/>
<path fill-rule="evenodd" clip-rule="evenodd" d="M210.339 268.82L210.339 127.286L211.846 125.825L211.846 0.365235L216.695 0.365234L216.695 268.82L210.339 268.82Z" fill="black"/>
<path fill-rule="evenodd" clip-rule="evenodd" d="M217.629 268.82L217.629 150.85L219.078 149.663L219.078 0.365235L224.168 0.365234L224.168 268.82L217.629 268.82Z" fill="black"/>
<path fill-rule="evenodd" clip-rule="evenodd" d="M225.1 268.82L225.1 158.157L226.402 157.152L226.402 0.547902L231.643 0.365234L231.643 268.82L225.1 268.82Z" fill="black"/>
<path fill-rule="evenodd" clip-rule="evenodd" d="M232.21 268.82L232.21 159.527L233.633 158.613L233.633 0.365235L239.113 0.365234L239.113 268.82L232.21 268.82Z" fill="black"/>
<path fill-rule="evenodd" clip-rule="evenodd" d="M239.498 268.82L239.498 211.707L239.498 154.595L241.042 153.316L241.042 0.365235L246.584 0.365234L246.584 268.82L239.498 268.82Z" fill="black"/>
<path fill-rule="evenodd" clip-rule="evenodd" d="M246.969 268.82L246.969 146.649L248.398 145.644L248.041 0.547902L254.059 0.365234L254.059 268.82L246.969 268.82Z" fill="black"/>
<path fill-rule="evenodd" clip-rule="evenodd" d="M254.438 268.82L254.438 149.206L255.688 147.836L256.045 0.365235L262.424 0.365234L262.424 268.82L254.438 268.82Z" fill="black"/>
<path fill-rule="evenodd" clip-rule="evenodd" d="M262.441 268.82L262.441 0.365235L269.002 0.365234L269.002 268.82L262.441 268.82Z" fill="black"/>
</svg>
