<svg width="194" height="59" viewBox="0 0 194 59" fill="none" xmlns="http://www.w3.org/2000/svg">
<path d="M39.22 27.8099C39.2198 27.5737 39.1729 27.34 39.0819 27.1221C38.9909 26.9041 38.8578 26.7063 38.69 26.54L32.23 20.0699C32.1631 19.999 32.0807 19.9445 31.9891 19.9108C31.8976 19.8771 31.7995 19.8652 31.7026 19.8759C31.6056 19.8865 31.5125 19.9195 31.4305 19.9723C31.3485 20.0251 31.2798 20.0961 31.23 20.1799C30.81 20.7999 30.37 21.4299 29.9 22.0599C29.8074 22.1819 29.7624 22.3336 29.7734 22.4863C29.7845 22.6391 29.8508 22.7826 29.96 22.89L34.45 27.38C34.559 27.4967 34.6196 27.6503 34.6196 27.8099C34.6196 27.9696 34.559 28.1233 34.45 28.24L28.6 34.08C26.9027 31.6652 24.9479 29.4421 22.77 27.45C25.35 25.04 31.31 18.7 31.31 11.71C31.2209 8.6622 29.9476 5.76919 27.7604 3.6449C25.5731 1.5206 22.644 0.332275 19.595 0.332275C16.5459 0.332275 13.6169 1.5206 11.4296 3.6449C9.24235 5.76919 7.96906 8.6622 7.88 11.71C7.88 18.71 13.88 25.05 16.42 27.45C14.2509 29.431 12.3059 31.6444 10.62 34.05L4.77997 28.2C4.72251 28.144 4.67687 28.0773 4.64569 28.0034C4.61451 27.9296 4.59845 27.8502 4.59845 27.77C4.59845 27.6899 4.61451 27.6105 4.64569 27.5366C4.67687 27.4628 4.72251 27.3959 4.77997 27.34L9.27002 22.85C9.37656 22.7431 9.4412 22.6017 9.45221 22.4512C9.46322 22.3007 9.41987 22.1512 9.33002 22.03C8.86002 21.41 8.42 20.77 8 20.14C7.94672 20.062 7.87707 19.9965 7.7959 19.9481C7.71473 19.8998 7.62395 19.8697 7.52997 19.86C7.43684 19.8488 7.34242 19.8592 7.25397 19.8904C7.16551 19.9216 7.08547 19.9728 7.02002 20.04L0.559998 26.51C0.391875 26.674 0.258279 26.8699 0.167053 27.0863C0.0758277 27.3027 0.0288086 27.5352 0.0288086 27.77C0.0288086 28.0049 0.0758277 28.2373 0.167053 28.4537C0.258279 28.6701 0.391875 28.8661 0.559998 29.03L8.71997 37.2C7.31854 39.7361 6.55011 42.5732 6.47998 45.47C6.4315 47.228 6.73594 48.978 7.37524 50.6165C8.01454 52.2549 8.97574 53.7485 10.2021 55.0092C11.4284 56.2698 12.895 57.2717 14.5152 57.9559C16.1354 58.6401 17.8763 58.9927 19.635 58.9927C21.3937 58.9927 23.1346 58.6401 24.7548 57.9559C26.3749 57.2717 27.8415 56.2698 29.0679 55.0092C30.2942 53.7485 31.2555 52.2549 31.8948 50.6165C32.5341 48.978 32.8385 47.228 32.79 45.47C32.7142 42.588 31.9496 39.766 30.56 37.24L38.72 29.0699C39.0454 28.7317 39.2249 28.2792 39.22 27.8099ZM19.61 25.67C17.9534 24.217 16.446 22.6023 15.11 20.85C14.0798 19.5219 13.201 18.083 12.49 16.5599C11.7714 15.0416 11.3797 13.3893 11.34 11.71C11.4146 9.5677 12.318 7.53809 13.8598 6.04895C15.4016 4.55981 17.4614 3.72754 19.605 3.72754C21.7485 3.72754 23.8084 4.55981 25.3502 6.04895C26.8921 7.53809 27.7955 9.5677 27.87 11.71C27.8303 13.3893 27.4385 15.0416 26.72 16.5599C26.0091 18.084 25.1339 19.5259 24.11 20.86C22.7692 22.6052 21.2621 24.2161 19.61 25.67ZM20.03 42.67C19.9749 42.7272 19.909 42.7727 19.8359 42.8037C19.7629 42.8348 19.6843 42.8507 19.605 42.8507C19.5256 42.8507 19.4471 42.8348 19.3741 42.8037C19.3011 42.7727 19.235 42.7272 19.18 42.67L13.31 36.8099C15.0928 34.1738 17.2105 31.7804 19.61 29.6899C22.0032 31.78 24.1173 34.1698 25.9 36.8L20.03 42.67ZM29.03 45.52C29.071 46.7783 28.8587 48.0319 28.4056 49.2064C27.9524 50.3809 27.2677 51.4524 26.3922 52.3569C25.5167 53.2615 24.4682 53.9808 23.3091 54.472C22.15 54.9633 20.9039 55.2164 19.645 55.2164C18.3861 55.2164 17.1401 54.9633 15.981 54.472C14.8219 53.9808 13.7734 53.2615 12.8978 52.3569C12.0223 51.4524 11.3376 50.3809 10.8844 49.2064C10.4312 48.0319 10.2189 46.7783 10.26 45.52C10.3026 43.6341 10.7386 41.7777 11.54 40.0699L18.38 46.91C18.7186 47.2435 19.1748 47.4303 19.65 47.4303C20.1253 47.4303 20.5814 47.2435 20.92 46.91L27.75 40.0699C28.5385 41.7769 28.9609 43.63 28.99 45.51L29.03 45.52Z" fill="#01213A"/>
<path d="M74.7799 27.3299V38.8599H69.5599V28.2399C69.5811 27.4823 69.5207 26.7246 69.3799 25.9799C69.2783 25.4963 69.0346 25.054 68.6799 24.7099C68.3938 24.4306 68.0534 24.2127 67.6799 24.0699C67.3109 23.9399 66.921 23.8789 66.5299 23.89C66.0538 23.8699 65.5793 23.9555 65.1401 24.1404C64.701 24.3254 64.3082 24.6052 63.99 24.9599C63.233 26.0641 62.8798 27.3956 62.99 28.7299V38.8499H57.8099V28.2399C57.8338 27.4591 57.7735 26.6779 57.6299 25.91C57.5115 25.4141 57.2425 24.9669 56.8599 24.6299C56.5747 24.3612 56.233 24.1597 55.8599 24.04C55.4534 23.9264 55.0318 23.8758 54.6099 23.89C54.1778 23.8754 53.7479 23.9577 53.3517 24.1307C52.9555 24.3037 52.603 24.5631 52.3199 24.89C51.5361 26.0497 51.1823 27.4469 51.3199 28.8399V38.8399H46.1599V20.3699H51.3199V22.9499C51.6327 22.2613 52.1018 21.6552 52.6899 21.1799C53.7337 20.4115 54.9827 19.9717 56.2776 19.9164C57.5726 19.8612 58.8546 20.1932 59.96 20.8699C60.8815 21.5214 61.5603 22.4606 61.8899 23.54C62.2845 22.6243 62.9036 21.8229 63.6899 21.2099C64.9505 20.3033 66.4785 19.8456 68.0299 19.91C68.9485 19.8474 69.8698 19.9817 70.7322 20.3043C71.5945 20.6268 72.3779 21.13 73.0299 21.78C74.2946 23.3418 74.92 25.3251 74.7799 27.3299Z" fill="#01213A"/>
<path d="M77.02 29.62C76.9665 28.3373 77.1708 27.0568 77.6208 25.8545C78.0708 24.6521 78.7574 23.5523 79.64 22.62C81.5506 20.8688 84.0482 19.8973 86.64 19.8973C89.2317 19.8973 91.7294 20.8688 93.64 22.62C94.5189 23.5544 95.2026 24.6549 95.6507 25.8569C96.0989 27.0589 96.3026 28.3382 96.25 29.62C96.3068 30.9039 96.1031 32.186 95.6511 33.389C95.1991 34.5921 94.5083 35.6911 93.6201 36.62C92.7102 37.5164 91.625 38.2154 90.4326 38.6731C89.2401 39.1308 87.966 39.3374 86.69 39.28C85.398 39.3542 84.1044 39.1636 82.8886 38.72C81.6729 38.2763 80.5607 37.5889 79.6201 36.7C78.7345 35.7542 78.0479 34.6402 77.6013 33.424C77.1547 32.2077 76.957 30.9141 77.02 29.62ZM89.7301 34.26C90.4705 32.8316 90.7927 31.2234 90.66 29.62C90.66 27.43 90.3501 25.89 89.7201 24.99C89.365 24.5198 88.8957 24.148 88.3567 23.91C87.8177 23.672 87.2267 23.5757 86.64 23.63C86.0482 23.5782 85.4529 23.6767 84.9093 23.9161C84.3656 24.1556 83.8912 24.5284 83.53 25C82.7613 26.4125 82.4142 28.016 82.53 29.62C82.53 31.81 82.8401 33.36 83.4701 34.26C83.8357 34.7281 84.3128 35.0969 84.8579 35.3328C85.403 35.5686 85.9986 35.6639 86.5901 35.61C87.1872 35.6718 87.7901 35.5782 88.3403 35.3381C88.8905 35.0981 89.3693 34.7198 89.7301 34.24V34.26Z" fill="#01213A"/>
<path d="M98.5601 12.99H103.72V38.86H98.5601V12.99Z" fill="#01213A"/>
<path d="M126.27 29.6199C126.211 28.3434 126.406 27.0678 126.842 25.8665C127.277 24.6652 127.946 23.5619 128.81 22.6199C129.723 21.7072 130.819 20.9975 132.025 20.5374C133.231 20.0773 134.521 19.8771 135.81 19.9499C137.867 19.8471 139.895 20.47 141.54 21.7099C143.2 23.1801 144.222 25.2389 144.39 27.4499H139.39C139.277 26.435 138.882 25.4721 138.25 24.67C137.943 24.3484 137.569 24.099 137.154 23.9399C136.738 23.7808 136.293 23.7159 135.85 23.7499C135.272 23.6931 134.688 23.792 134.161 24.0364C133.633 24.2808 133.181 24.6618 132.85 25.14C132.174 26.5209 131.878 28.0566 131.99 29.5899C131.877 31.1319 132.17 32.6764 132.84 34.0699C133.175 34.5428 133.628 34.9187 134.155 35.1594C134.682 35.4 135.264 35.4968 135.84 35.4399C137.707 35.4399 138.887 34.3766 139.38 32.2499H144.38C144.318 33.2653 144.041 34.2559 143.567 35.1559C143.093 36.056 142.432 36.8447 141.63 37.4699C139.95 38.72 137.892 39.3555 135.8 39.27C134.521 39.3456 133.24 39.1582 132.036 38.7197C130.832 38.2811 129.731 37.6005 128.8 36.7199C127.93 35.7623 127.259 34.6418 126.824 33.4232C126.39 32.2045 126.202 30.9119 126.27 29.6199Z" fill="#01213A"/>
<path d="M163.37 20.39V38.86H158.37V36.24C157.9 37.2027 157.153 38.0029 156.224 38.5375C155.296 39.0721 154.229 39.3167 153.16 39.24C152.14 39.2627 151.124 39.1036 150.16 38.77C149.301 38.4291 148.534 37.8913 147.92 37.2C147.269 36.5212 146.816 35.6775 146.61 34.76C146.344 33.525 146.223 32.2631 146.25 31V20.3199H151.53V30.74C151.509 31.5266 151.562 32.3135 151.69 33.09C151.782 33.587 152.007 34.0499 152.34 34.4299C152.612 34.7387 152.955 34.9757 153.34 35.12C153.837 35.262 154.353 35.3261 154.87 35.3099C155.352 35.3242 155.831 35.2184 156.262 35.002C156.693 34.7855 157.063 34.4652 157.34 34.0699C158.028 32.9641 158.35 31.6694 158.26 30.37V20.37L163.37 20.39Z" fill="#01213A"/>
<path d="M166.76 12.99H171.92V38.86H166.76V12.99Z" fill="#01213A"/>
<path d="M187.56 33.0999C187.371 33.804 186.969 34.4327 186.41 34.9C185.513 35.4523 184.464 35.7071 183.414 35.6281C182.363 35.5491 181.364 35.1402 180.56 34.4599C179.763 33.4748 179.37 32.2238 179.46 30.9599H193C193.073 27.2399 192.23 24.43 190.47 22.53C189.589 21.6492 188.533 20.9628 187.37 20.515C186.208 20.0672 184.964 19.8678 183.72 19.9299C182.491 19.8689 181.262 20.0553 180.106 20.4779C178.95 20.9004 177.89 21.5506 176.99 22.39C175.23 24.07 174.36 26.4699 174.36 29.5899C174.282 30.92 174.479 32.2519 174.939 33.5026C175.398 34.7533 176.11 35.8962 177.03 36.8599C177.927 37.7037 178.986 38.3562 180.143 38.7774C181.3 39.1986 182.531 39.3797 183.76 39.3099C185.827 39.3998 187.872 38.8555 189.62 37.7499C191.185 36.6393 192.28 34.9848 192.69 33.1099H187.56V33.0999ZM180.42 24.9C181.231 24.0744 182.323 23.5841 183.479 23.5267C184.635 23.4692 185.771 23.8488 186.66 24.5899C187.316 25.3849 187.698 26.3704 187.75 27.4H179.5C179.567 26.4971 179.886 25.6311 180.42 24.9Z" fill="#01213A"/>
<path d="M118.95 33.1C118.761 33.8041 118.359 34.4328 117.8 34.9001C116.904 35.45 115.857 35.7035 114.809 35.6245C113.76 35.5455 112.763 35.138 111.96 34.46C111.163 33.4748 110.77 32.2239 110.86 30.96H124.39C124.463 27.24 123.62 24.4301 121.86 22.5301C120.98 21.6501 119.926 20.9641 118.765 20.5163C117.604 20.0685 116.363 19.8687 115.12 19.93C113.889 19.8688 112.658 20.0549 111.501 20.4774C110.343 20.9 109.282 21.5504 108.38 22.39C106.633 24.07 105.757 26.47 105.75 29.59C105.672 30.9201 105.869 32.252 106.329 33.5027C106.788 34.7534 107.5 35.8962 108.42 36.86C109.317 37.7033 110.376 38.3555 111.533 38.7766C112.69 39.1978 113.921 39.3792 115.15 39.31C117.22 39.4 119.268 38.8558 121.02 37.75C122.579 36.6356 123.67 34.9822 124.08 33.11H118.95V33.1ZM111.81 24.9001C112.623 24.0737 113.717 23.5832 114.874 23.5258C116.032 23.4684 117.169 23.8482 118.06 24.59C118.709 25.3884 119.087 26.3725 119.14 27.4001H110.89C110.962 26.4982 111.28 25.6334 111.81 24.9001Z" fill="#01213A"/>
</svg>
