<svg xmlns="http://www.w3.org/2000/svg" width="500" height="160" viewBox="0 0 500 160"><path fill="#252A2E" d="M255.435 31.248c0-10.363-7.825-15.943-17.102-15.943h-22.393v50.725h11.45v-17.248h9.71c11.885 0 18.333-7.97 18.333-17.535h.002zm-11.958.725c0 4.348-2.825 7.248-6.667 7.248h-9.493v-14.348h9.493c3.84 0 6.667 2.465 6.667 7.103v-.003zm41.813 5.145v-11.16h-3.478c-3.985 0-7.825 1.74-9.783 5.073v-5.073h-10.797v40.073h11.16v-21.305c0-5.58 3.26-7.68 8.768-7.68 1.522 0 4.13.072 4.13.072zm22.68 29.42c11.595 0 19.855-6.957 19.855-20.507 0-13.623-8.26-20.58-19.855-20.58-11.523 0-19.783 6.957-19.783 20.58 0 13.55 8.26 20.507 19.783 20.507zm0-32.03c4.855 0 8.477 3.26 8.477 11.523 0 8.188-3.623 11.45-8.477 11.45-4.71 0-8.405-3.26-8.405-11.45 0-8.26 3.695-11.523 8.405-11.523zm47.392 31.378v-9.275s-2.535.218-4.855.218c-2.392 0-3.115-.653-3.115-3.115v-18.767h8.478v-8.985h-8.478v-10.652h-11.232v10.652h-5.798v8.985h5.798v19.347c0 7.465 1.087 12.03 10.435 12.03 5.072 0 8.767-.435 8.767-.435v-.002zm23.188.652c11.595 0 19.855-6.957 19.855-20.507 0-13.623-8.26-20.58-19.855-20.58-11.523 0-19.783 6.957-19.783 20.58 0 13.55 8.26 20.507 19.783 20.507zm0-32.03c4.855 0 8.477 3.26 8.477 11.523 0 8.188-3.623 11.45-8.477 11.45-4.71 0-8.405-3.26-8.405-11.45 0-8.26 3.695-11.523 8.405-11.523zm50.725 16.377c-.725 4.782-3.985 6.595-7.535 6.595-4.565 0-8.188-3.26-8.188-11.45 0-8.26 3.55-11.523 8.332-11.523 3.767 0 6.668 1.885 7.248 6.813h11.233c-.942-10.58-8.478-15.87-18.55-15.87-11.522 0-19.782 7.175-19.782 20.725 0 13.623 8.477 20.362 20 20.362 10.29 0 17.247-5.29 18.405-15.652h-11.162zm34.203 15.652c11.595 0 19.855-6.957 19.855-20.507 0-13.623-8.26-20.58-19.855-20.58-11.523 0-19.783 6.957-19.783 20.58 0 13.55 8.26 20.507 19.783 20.507zm0-32.03c4.855 0 8.477 3.26 8.477 11.523 0 8.188-3.623 11.45-8.477 11.45-4.71 0-8.405-3.26-8.405-11.45 0-8.26 3.695-11.523 8.405-11.523zm36.45 31.523v-53.623h-11.16v53.623h11.16zm-248.043 79.71v-10h-24.492v-40.725h-11.45v50.725h35.942zm30.218-15.363c0 3.405-2.32 7.752-8.913 7.752-4.275 0-5.435-2.68-5.435-4.493 0-2.535 1.957-4.13 4.637-4.637 2.752-.58 9.71-1.45 9.71-1.45v2.827zm-24.493-11.595h10.798c0-1.595.435-4.927 7.03-4.927 5.363 0 6.668 1.885 6.668 4.638v1.377l-13.188 1.885c-3.695.508-12.608 2.752-12.608 11.885 0 8.043 6.16 12.608 14.42 12.608 6.885 0 9.928-2.32 11.667-4.13v3.623h11.813s-.87-3.043-.87-5.942v-21.595c0-5.797-3.188-13.043-17.897-13.043-15.217 0-17.68 7.752-17.825 13.623h-.007zm54.13 26.958v-3.913c2.03 2.535 5.58 4.42 10 4.42 10.87 0 18.332-6.958 18.332-20.508 0-13.622-7.608-20.58-17.68-20.58-4.42 0-8.623 1.885-10.652 4.42v-17.465h-11.16v53.623h11.16v.002zm8.477-31.523c4.855 0 8.478 3.26 8.478 11.522 0 8.188-3.623 11.45-8.478 11.45-5.435 0-8.405-2.535-8.405-11.45 0-8.985 2.97-11.522 8.405-11.522zm47.753 3.332h10.942c0-3.115-1.595-12.392-17.248-12.392-9.565 0-17.175 4.275-17.175 12.535 0 9.347 7.535 11.305 16.16 12.465l2.175.29c3.115.435 6.015 1.088 6.015 3.55 0 2.898-3.115 4.058-6.667 4.058-3.84 0-7.248-1.16-7.248-5h-11.233c0 2.102.942 13.188 17.825 13.188 15 0 18.623-7.32 18.623-13.478 0-16.16-24.493-9.71-24.493-15.87 0-2.752 3.043-3.623 5.87-3.623 3.84 0 6.45 1.523 6.45 4.275l.003.002zm-292.08.428c1.718.992 3.113 3.417 3.113 5.392v34.13c0 1.985-1.403 2.785-3.112 1.8l-29.535-17.048c-1.717-.993-3.112-3.417-3.112-5.392v-34.13c0-1.985 1.403-2.785 3.112-1.8l29.535 17.047zm45.558-30.108c0 1.985-1.403 4.402-3.113 5.392l-29.547 17.055c-1.718.993-3.112.178-3.112-1.797v-34.12c0-1.985 1.403-4.403 3.112-5.393l29.547-17.055c1.718-.992 3.113-.178 3.113 1.797l-.003 34.123.003-.002zm-6.49-45.3c1.748 1.008 1.76 2.635.05 3.623l-29.563 17.062c-1.72.993-4.535.975-6.275-.03l-71.877-41.49c-1.748-1.008-1.76-2.635-.048-3.622l29.565-17.065c1.72-.992 4.535-.975 6.275.03l71.873 41.498-.003-.003.002-.002zm-78.387 90.42c0 1.99-1.403 2.792-3.108 1.805l-29.532-17.047c-1.717-.993-3.107-3.438-3.107-5.445v-82.99c0-2.017 1.425-2.83 3.162-1.825l71.858 41.478c1.748 1.007 3.162 3.445 3.162 5.42v34.127c0 1.985-1.412 2.78-3.12 1.793l-36.193-20.888c-1.725-.993-3.12-.17-3.12 1.8v41.768l-.002.002v.002zm91.525-83.073c0-1.99 1.403-4.41 3.113-5.397l29.542-17.055c1.718-.992 3.113-.152 3.113 1.855v82.99c0 2.017-1.425 4.475-3.163 5.475l-71.857 41.477c-1.748 1.008-3.162.208-3.162-1.767v-34.13c0-1.985 1.41-4.41 3.12-5.395l36.175-20.88c1.72-.993 3.12-3.43 3.12-5.403l.002-41.773v.002h-.002zm-35.992-28.225c-1.72-.992-1.71-2.605 0-3.595l29.557-17.058c1.718-.992 4.515-.985 6.225 0l29.557 17.063c1.718.992 1.71 2.605 0 3.595l-29.555 17.062c-1.718.992-4.515.985-6.225 0l-29.557-17.065h-.002v-.003z"/></svg>