<?xml version="1.0" standalone="no"?>
<!DOCTYPE svg PUBLIC "-//W3C//DTD SVG 20010904//EN"
 "http://www.w3.org/TR/2001/REC-SVG-20010904/DTD/svg10.dtd">
<svg version="1.0" xmlns="http://www.w3.org/2000/svg"
 width="1455.000000pt" height="1454.000000pt" viewBox="0 0 1455.000000 1454.000000"
 preserveAspectRatio="xMidYMid meet">
<metadata>
Created by potrace 1.16, written by Peter Selinger 2001-2019
</metadata>
<g transform="translate(0.000000,1454.000000) scale(0.100000,-0.100000)"
fill="#000000" stroke="none">
<path d="M3820 12959 c-424 -27 -817 -109 -1150 -240 -928 -364 -1580 -1192
-1755 -2233 -37 -222 -45 -316 -45 -577 -1 -278 14 -446 60 -671 131 -636 472
-1203 948 -1575 233 -183 571 -369 847 -468 397 -143 902 -225 1383 -225 270
0 629 -93 892 -232 358 -189 596 -423 755 -743 101 -204 160 -399 201 -667 22
-138 31 -769 15 -936 -16 -157 -63 -387 -107 -525 -47 -146 -146 -352 -225
-467 l-63 -92 25 -19 c282 -224 619 -367 977 -414 188 -25 179 -27 233 63 252
419 380 834 419 1362 16 215 13 851 -5 1005 -77 667 -302 1200 -706 1676 -238
281 -516 497 -854 664 -451 223 -898 324 -1525 345 -151 5 -320 16 -375 25
-525 81 -989 344 -1265 715 -231 312 -370 757 -370 1183 0 645 207 1197 568
1514 441 389 1003 562 1667 514 561 -41 949 -179 1271 -452 139 -118 251 -259
364 -457 111 -195 187 -273 305 -309 53 -16 97 -18 365 -18 293 0 307 1 360
22 71 29 146 87 184 141 24 34 31 55 34 108 11 172 -65 409 -206 644 -59 98
-193 277 -273 364 -325 354 -881 676 -1434 831 -438 123 -1001 176 -1515 144z"/>
<path d="M10489 10491 c-104 -34 -185 -105 -232 -208 -21 -47 -22 -59 -25
-448 -3 -419 2 -494 39 -567 31 -61 103 -126 177 -161 l67 -32 450 -3 c484 -4
534 0 617 45 61 33 132 105 160 162 23 46 23 49 23 511 l0 465 -23 48 c-35 69
-102 134 -180 170 l-67 32 -475 2 c-434 2 -480 1 -531 -16z"/>
<path d="M6425 7993 c-182 -15 -426 -49 -562 -79 l-71 -16 96 -50 c345 -180
633 -413 882 -713 41 -50 84 -103 95 -118 20 -27 24 -28 160 -37 649 -46 1098
-233 1423 -593 82 -91 135 -168 223 -321 118 -204 197 -279 329 -310 88 -21
580 -23 655 -2 107 28 212 105 246 181 23 49 25 144 5 247 -80 417 -436 894
-901 1208 -514 346 -1100 543 -1788 599 -115 10 -691 13 -792 4z"/>
<path d="M4058 6720 c-9 -5 -48 -63 -87 -128 -223 -372 -360 -795 -416 -1277
-18 -154 -21 -790 -5 -1005 29 -384 102 -699 236 -1009 327 -758 962 -1297
1826 -1550 705 -206 1670 -207 2395 -1 422 119 886 356 1203 614 300 244 560
592 654 874 59 175 73 351 35 429 -25 51 -102 123 -164 152 -81 38 -131 43
-437 39 -281 -3 -296 -4 -353 -27 -91 -36 -181 -134 -270 -291 -112 -199 -201
-313 -350 -448 -242 -222 -584 -372 -1000 -441 -225 -37 -635 -46 -845 -17
-403 55 -766 215 -1072 472 -207 175 -395 470 -492 771 -44 138 -91 368 -107
525 -16 167 -7 798 15 936 53 347 155 628 309 854 l65 97 -41 34 c-109 88
-274 184 -430 251 -232 99 -611 182 -669 146z"/>
<path d="M10640 6704 c-106 -29 -203 -106 -244 -193 l-21 -46 0 -2300 c0
-1888 2 -2307 13 -2338 20 -54 106 -144 172 -177 31 -15 82 -33 115 -39 74
-14 584 -14 655 -1 123 23 239 107 279 200 l21 49 0 2301 0 2302 -21 49 c-29
65 -120 150 -196 180 -56 23 -69 24 -388 26 -268 2 -340 -1 -385 -13z"/>
<path d="M1120 3837 c-105 -30 -202 -103 -239 -180 -38 -78 -24 -254 35 -429
94 -282 354 -630 654 -874 317 -258 781 -495 1203 -614 518 -147 1182 -192
1785 -120 135 15 365 55 436 74 6 1 -56 36 -136 78 -405 211 -686 437 -947
761 l-62 77 -62 0 c-34 0 -123 7 -197 15 -470 49 -862 207 -1135 457 -149 135
-238 249 -350 448 -88 157 -179 255 -270 291 -58 23 -70 24 -365 26 -223 2
-317 -1 -350 -10z"/>
<path d="M12629 3031 c-104 -34 -185 -105 -232 -208 -21 -47 -22 -59 -25 -448
-3 -419 2 -494 39 -567 31 -61 103 -126 177 -161 l67 -32 450 -3 c484 -4 534
0 617 45 61 33 132 105 160 162 23 46 23 49 23 511 l0 465 -23 48 c-35 69
-102 134 -180 170 l-67 32 -475 2 c-434 2 -480 1 -531 -16z"/>
</g>
</svg>
