<svg width="242" height="55" viewBox="0 0 242 55" fill="none" xmlns="http://www.w3.org/2000/svg">
<g clip-path="url(#clip0_180_668)">
<path d="M84.9179 39.1292L76.8513 15.4004H82.1994L88.2817 34.4499H87.2087L93.291 15.4004H98.6797L90.613 39.1292H84.9179Z" fill="#004560"/>
<path d="M103.584 39.5103C102.479 39.5346 101.381 39.3302 100.357 38.91C99.5036 38.5515 98.7744 37.9481 98.2603 37.1748C97.7621 36.3678 97.5094 35.4316 97.534 34.4821C97.5174 33.5719 97.749 32.6747 98.2036 31.8873C98.701 31.0811 99.4064 30.4251 100.245 29.9893C101.319 29.4305 102.482 29.063 103.681 28.9028L108.973 28.0431V31.5709L104.536 32.3819C103.972 32.457 103.438 32.6807 102.987 33.0305C102.803 33.1947 102.658 33.3993 102.564 33.6284C102.471 33.8575 102.431 34.1055 102.447 34.3527C102.436 34.593 102.485 34.8322 102.589 35.0488C102.694 35.2654 102.85 35.4524 103.044 35.5933C103.479 35.9031 104.003 36.0598 104.536 36.0391C105.255 36.0562 105.965 35.8799 106.593 35.5283C107.174 35.2104 107.653 34.7323 107.973 34.1499C108.302 33.5612 108.472 32.8952 108.465 32.2195V27.6946C108.459 27.3809 108.384 27.0721 108.244 26.7914C108.105 26.5107 107.904 26.2653 107.658 26.0727C107.061 25.5978 106.313 25.3584 105.553 25.3995C104.751 25.3854 103.967 25.6327 103.318 26.1048C102.675 26.5661 102.183 27.2101 101.906 27.954L98.107 26.1372C98.4298 25.178 98.9841 24.3145 99.7204 23.6235C100.488 22.9057 101.394 22.3537 102.382 22.0016C103.469 21.6098 104.616 21.4148 105.77 21.4258C107.103 21.4011 108.423 21.6783 109.634 22.2368C110.695 22.7127 111.601 23.4801 112.248 24.4507C112.884 25.4277 113.211 26.5755 113.184 27.7429V39.2102H108.819V36.4042L109.9 36.2177C109.438 36.9304 108.872 37.5698 108.222 38.1153C107.609 38.6121 106.909 38.9891 106.158 39.2264C105.32 39.4555 104.451 39.5513 103.584 39.5103Z" fill="#004560"/>
<path d="M116.386 39.1292V15.4004H121.137V39.1292H116.386Z" fill="#004560"/>
<path d="M124.307 39.1292V15.4004H129.058V39.1292H124.307Z" fill="#004560"/>
<path d="M140.562 39.5108C138.885 39.5548 137.229 39.1307 135.778 38.286C134.451 37.4993 133.365 36.3604 132.64 34.9938C131.891 33.5821 131.508 32.0034 131.527 30.4036C131.497 28.7785 131.898 27.1746 132.688 25.7568C133.423 24.4155 134.501 23.2956 135.81 22.5129C137.15 21.7158 138.683 21.3061 140.239 21.3289C141.486 21.3049 142.725 21.5281 143.885 21.9858C144.9 22.3929 145.814 23.0183 146.563 23.8184C147.292 24.6069 147.856 25.5331 148.225 26.5432C148.614 27.6191 148.807 28.7562 148.798 29.9007C148.798 30.2413 148.798 30.574 148.749 30.9065C148.724 31.1832 148.664 31.4556 148.572 31.7175H135.617V28.2138H145.926L143.675 29.8358C143.9 29.0405 143.9 28.1982 143.675 27.4029C143.467 26.7182 143.038 26.1224 142.457 25.7081C141.825 25.2807 141.074 25.0648 140.312 25.0915C139.561 25.073 138.821 25.2823 138.19 25.6918C137.575 26.135 137.11 26.7581 136.859 27.4761C136.548 28.3989 136.43 29.3762 136.512 30.347C136.416 31.2222 136.535 32.1074 136.859 32.9256C137.156 33.6416 137.666 34.2479 138.319 34.6612C139.01 35.0537 139.786 35.2694 140.58 35.2892C141.373 35.309 142.159 35.1324 142.869 34.7749C143.455 34.4439 143.94 33.9589 144.272 33.3719L148.08 35.1883C147.73 36.0522 147.176 36.8176 146.466 37.4184C145.707 38.0707 144.831 38.5715 143.885 38.8942C142.822 39.2952 141.697 39.504 140.562 39.5108Z" fill="#004560"/>
<path d="M153.993 46.1685C153.498 46.1708 153.003 46.1273 152.516 46.0386C152.08 45.9685 151.658 45.8291 151.266 45.6252V41.7081C151.611 41.8063 151.961 41.882 152.315 41.935C152.68 41.9944 153.05 42.0245 153.42 42.0245C153.781 42.0608 154.146 42.0203 154.491 41.9057C154.835 41.7912 155.152 41.6049 155.42 41.3593C155.827 40.9039 156.159 40.3869 156.405 39.8268L157.574 37.1262L157.51 41.1078L149.903 21.7095H155.009L160.043 35.496H158.147L163.181 21.7095H168.279L160.865 40.7186C160.469 41.8189 159.891 42.8445 159.155 43.7518C158.538 44.5278 157.751 45.1507 156.856 45.5725C155.961 45.9943 154.981 46.2038 153.993 46.1847V46.1685Z" fill="#004560"/>
<path d="M170.376 39.1291V15.4003H178.072C180.383 15.3422 182.671 15.8694 184.727 16.9332C186.549 17.8915 188.064 19.3474 189.099 21.1338C190.115 23.0127 190.648 25.1179 190.648 27.2568C190.648 29.3958 190.115 31.5005 189.099 33.3795C188.065 35.1729 186.55 36.6372 184.727 37.6046C182.669 38.6617 180.382 39.1856 178.072 39.1291H170.376ZM175.281 34.8311H178.193C179.582 34.8664 180.957 34.5424 182.186 33.8903C183.288 33.2754 184.194 32.3588 184.799 31.2467C185.409 30.0003 185.726 28.6297 185.726 27.2406C185.726 25.8514 185.409 24.4809 184.799 23.2344C184.193 22.1316 183.286 21.2255 182.186 20.6229C180.954 19.9802 179.58 19.662 178.193 19.6983H175.272L175.281 34.8311Z" fill="#004560"/>
<path d="M190.446 39.1292L198.432 15.4004H204.958L212.936 39.1292H207.587L205.974 34.2634H197.327L195.714 39.1292H190.446ZM198.714 29.9895H204.635L201.029 18.7742H202.393L198.714 29.9895Z" fill="#004560"/>
<path d="M225.455 39.5102C223.763 39.5254 222.084 39.2114 220.51 38.5856C219.034 37.9993 217.688 37.1239 216.551 36.0102C215.414 34.8964 214.509 33.5665 213.888 32.0979C213.243 30.5584 212.919 28.9023 212.936 27.232C212.917 25.5632 213.236 23.908 213.871 22.3662C214.477 20.9056 215.372 19.584 216.501 18.4816C217.647 17.3697 218.998 16.4939 220.478 15.903C223.68 14.6704 227.222 14.6704 230.424 15.903C231.906 16.4911 233.257 17.3672 234.401 18.4816C235.531 19.584 236.425 20.9056 237.031 22.3662C237.67 23.9068 237.989 25.5629 237.967 27.232C237.996 29.6719 237.288 32.0633 235.937 34.0904C234.586 36.1175 232.656 37.6849 230.4 38.5856C228.827 39.2114 227.147 39.5254 225.455 39.5102ZM225.455 35.0499C226.48 35.0606 227.497 34.8675 228.448 34.4821C229.352 34.1062 230.175 33.5551 230.868 32.8601C231.569 32.1716 232.119 31.3428 232.481 30.4272C232.868 29.4216 233.06 28.351 233.046 27.2728C233.06 26.1999 232.868 25.1342 232.481 24.1343C232.112 23.2222 231.563 22.3946 230.868 21.7014C230.184 20.9955 229.359 20.4427 228.448 20.0794C226.522 19.3334 224.388 19.3334 222.462 20.0794C221.553 20.4455 220.728 20.9979 220.042 21.7014C219.348 22.3959 218.8 23.2231 218.429 24.1343C218.039 25.1337 217.845 26.1994 217.856 27.2728C217.845 28.3515 218.039 29.4222 218.429 30.4272C218.794 31.3414 219.343 32.1698 220.042 32.8601C220.737 33.5527 221.559 34.1035 222.462 34.4821C223.413 34.8684 224.43 35.0615 225.455 35.0499Z" fill="#004560"/>
<path d="M43.3019 17.1277C48.0065 17.1277 51.8203 13.2935 51.8203 8.56385C51.8203 3.83416 48.0065 0 43.3019 0C38.5973 0 34.7835 3.83416 34.7835 8.56385C34.7835 13.2935 38.5973 17.1277 43.3019 17.1277Z" fill="#F46060"/>
<path d="M48.4401 10.9642C45.2505 10.0416 41.8821 9.93594 38.6416 10.6569C35.401 11.3779 32.3913 12.9028 29.8868 15.0923C29.6304 15.3063 29.3146 15.4352 28.9824 15.4614C28.6502 15.4875 28.318 15.4093 28.0316 15.238C26.9135 14.5259 25.6989 13.9796 24.4256 13.6161C24.1269 13.5325 23.8585 13.3644 23.6524 13.1314C23.4464 12.8984 23.3116 12.6107 23.2641 12.3026C22.8902 9.90679 21.9152 7.64603 20.4313 5.73407C18.9473 3.82211 17.0034 2.32178 14.7827 1.37471C12.562 0.427639 10.1381 0.0649172 7.73929 0.321002C5.34052 0.577086 3.04621 1.44345 1.07287 2.83826C0.626152 3.16224 0.302584 3.62983 0.155915 4.16361C0.00924647 4.69738 0.0482534 5.26549 0.266202 5.77406L13.3663 36.4856C14.1846 37.03 15.147 37.3139 16.1282 37.3009C17.1093 37.2879 18.0642 36.9786 18.868 36.4127L46.7866 16.8683C47.6656 16.2522 48.3197 15.3635 48.6489 14.3384C48.9781 13.3132 48.9642 12.208 48.6095 11.1915L48.4401 10.9642Z" fill="url(#paint0_linear_180_668)"/>
<path d="M45.4314 45.6415L63.3396 3.63303C63.4904 3.26782 63.5504 2.87136 63.5144 2.47755C63.4785 2.08374 63.3477 1.70464 63.1332 1.37316C62.9186 1.04167 62.6267 0.767881 62.2832 0.575256C61.9396 0.382631 61.5546 0.27687 61.1614 0.267578C57.556 0.267342 54.0433 1.41655 51.1285 3.54987C48.2136 5.68319 46.0468 8.69083 44.9394 12.1403C44.7176 12.8354 44.3339 13.4674 43.8204 13.9836C43.3069 14.4998 42.6783 14.8855 41.9869 15.1086C40.4201 15.6303 38.985 16.4877 37.7803 17.6219C36.5755 18.756 35.63 20.1396 35.0093 21.6771C34.6328 22.6317 33.956 23.4363 33.0821 23.9679C32.2081 24.4994 31.1851 24.729 30.1693 24.6212C29.6038 24.5628 29.0358 24.5327 28.4674 24.5317C24.9685 24.5333 21.5712 25.7156 18.8201 27.8889C16.0689 30.0621 14.123 33.1008 13.2939 36.5181L17.1819 45.6415C22.5059 58.1224 40.1155 58.1224 45.4314 45.6415Z" fill="url(#paint1_linear_180_668)"/>
<path d="M44.7539 30.0546C47.1061 30.0546 49.0131 28.1375 49.0131 25.7726C49.0131 23.4078 47.1061 21.4907 44.7539 21.4907C42.4016 21.4907 40.4947 23.4078 40.4947 25.7726C40.4947 28.1375 42.4016 30.0546 44.7539 30.0546Z" fill="#199B57"/>
<path d="M38.4054 45.9417C39.9736 45.9417 41.2449 44.6636 41.2449 43.087C41.2449 41.5105 39.9736 40.2324 38.4054 40.2324C36.8372 40.2324 35.5659 41.5105 35.5659 43.087C35.5659 44.6636 36.8372 45.9417 38.4054 45.9417Z" fill="#199B57"/>
<path d="M19.6746 21.4582C20.8508 21.4582 21.8042 20.4997 21.8042 19.3172C21.8042 18.1348 20.8508 17.1763 19.6746 17.1763C18.4985 17.1763 17.545 18.1348 17.545 19.3172C17.545 20.4997 18.4985 21.4582 19.6746 21.4582Z" fill="#61D1C9"/>
<path d="M12.7003 13.3058C14.6743 12.4335 15.5708 10.1173 14.7031 8.13282C13.8353 6.14833 11.5318 5.24685 9.55788 6.11922C7.58392 6.99159 6.68722 9.30736 7.55496 11.2919C8.4227 13.2763 10.7263 14.1782 12.7003 13.3058Z" fill="#61D1C9"/>
<path d="M33.6864 32.4551C33.8361 32.7525 33.926 33.0769 33.9507 33.4094C33.9753 33.7419 33.9344 34.0761 33.8302 34.3926C33.726 34.7091 33.5604 35.0018 33.3433 35.2539C33.1262 35.5059 32.8621 35.7123 32.5654 35.8613C29.8925 37.2258 27.6559 39.3198 26.1121 41.9032C25.9503 42.2058 25.729 42.4719 25.4618 42.686C25.1946 42.9002 24.8869 43.0578 24.5574 43.1489C24.2279 43.24 23.8833 43.2629 23.5448 43.2163C23.2062 43.1696 22.8806 43.0542 22.5876 42.8773C22.2947 42.7004 22.0404 42.4653 21.8405 42.1867C21.6405 41.9081 21.4989 41.5918 21.4241 41.2565C21.3494 40.9213 21.343 40.5742 21.4056 40.2365C21.4682 39.8987 21.5983 39.5774 21.7881 39.2917C23.8304 35.8793 26.7925 33.1184 30.3309 31.3281C30.926 31.0386 31.6099 30.9943 32.2369 31.2049C32.8639 31.4156 33.384 31.8641 33.6864 32.4551Z" fill="#199B57"/>
</g>
<defs>
<linearGradient id="paint0_linear_180_668" x1="41.4464" y1="44.6195" x2="10.2728" y2="-16.2557" gradientUnits="userSpaceOnUse">
<stop stop-color="#004560"/>
<stop offset="1" stop-color="#61D1C9"/>
</linearGradient>
<linearGradient id="paint1_linear_180_668" x1="34.5818" y1="18.9118" x2="55.8167" y2="39.2678" gradientUnits="userSpaceOnUse">
<stop stop-color="#43D16A"/>
<stop offset="1" stop-color="#25B7B0"/>
</linearGradient>
<clipPath id="clip0_180_668">
<rect width="242" height="55" fill="white"/>
</clipPath>
</defs>
</svg>
