<svg width="178" height="35" viewBox="0 0 178 35" fill="none" xmlns="http://www.w3.org/2000/svg">
<rect width="178" height="35" fill="#1231D5"/>
<g clip-path="url(#clip0_823_316)">
<path d="M9.86523 23.8522H14.1298C18.0923 23.8522 20.5444 21.4066 20.5444 17.5808C20.5444 13.755 18.0923 11.3093 14.1298 11.3093H9.86523V23.8522ZM12.0864 21.9306V13.231H14.112C16.7596 13.231 18.3055 14.9255 18.3055 17.5808C18.3055 20.2186 16.7596 21.9306 14.1298 21.9306H12.0864Z" fill="white"/>
<path d="M24.8287 11.3093V23.8522H33.4644V21.8957H27.0675V18.3669H32.4515V16.4104H27.0675V13.2659H33.4644V11.3093H24.8287Z" fill="white"/>
<path d="M36.5862 21.4066C37.5812 23.0137 39.7491 24.0444 41.9346 24.0444C44.5644 24.0444 46.7678 22.5246 46.7678 20.0614C46.7678 17.3362 44.2979 16.8646 42.2367 16.4104C40.5131 16.026 39.5358 15.7989 39.5358 14.6984C39.5358 13.7026 40.4776 13.0213 41.8458 13.0213C43.3384 13.0213 44.2801 13.7725 44.9909 14.8556L46.6612 13.4406C45.8083 12.1304 44.1024 11.1172 41.9169 11.1172C39.3404 11.1172 37.3147 12.6021 37.3147 14.9255C37.3147 17.3712 39.3759 17.9302 41.295 18.3844C43.1962 18.8386 44.5289 19.0133 44.5289 20.2885C44.5289 21.4939 43.445 22.1403 42.0057 22.1403C40.5487 22.1403 39.216 21.3541 38.3275 19.9915L36.5862 21.4066Z" fill="white"/>
<path d="M51.9469 17.5808C51.9469 14.8731 53.4395 13.0912 55.5362 13.0912C57.0288 13.0912 58.1127 13.9821 58.5036 15.4496L60.6359 14.7333C59.8896 12.5147 58.1127 11.1172 55.5362 11.1172C52.1424 11.1172 49.6725 13.7725 49.6725 17.5808C49.6725 21.3891 52.1424 24.0444 55.5362 24.0444C58.1127 24.0444 59.8896 22.6469 60.6359 20.4283L58.5036 19.712C58.1127 21.1795 57.0288 22.0704 55.5362 22.0704C53.4395 22.0704 51.9469 20.2885 51.9469 17.5808Z" fill="white"/>
<path d="M66.4218 11.3093H64.1474V23.8522H66.4218V11.3093Z" fill="white"/>
<path d="M97.1471 24.0583H99.2242V17.1883H93.6853V19.1765H97.0406C96.9696 20.9872 95.7624 22.3009 93.916 22.3009C91.7324 22.3009 90.2412 20.4547 90.2412 17.7031C90.2412 14.9516 91.7324 13.1232 93.8805 13.1232C95.4073 13.1232 96.4725 13.993 96.8453 15.5019L99.0112 14.7741C98.2301 12.5196 96.4725 11.1172 93.8628 11.1172C90.4364 11.1172 87.9688 13.8687 87.9688 17.7386C87.9688 21.5908 90.4187 24.2536 93.7208 24.2536C95.3896 24.2536 96.6323 23.5968 97.1471 22.7447V24.0583Z" fill="white"/>
<path d="M102.951 24.0583H111.224V22.0701H105.223V11.3125H102.951V24.0583Z" fill="white"/>
<path d="M113.013 17.6854C113.013 21.5553 115.498 24.2536 118.942 24.2536C122.386 24.2536 124.872 21.5553 124.872 17.6854C124.872 13.8155 122.386 11.1172 118.942 11.1172C115.498 11.1172 113.013 13.8155 113.013 17.6854ZM122.599 17.6854C122.599 20.4547 121.09 22.2476 118.942 22.2476C116.794 22.2476 115.285 20.4547 115.285 17.6854C115.285 14.9161 116.794 13.1232 118.942 13.1232C121.09 13.1232 122.599 14.9161 122.599 17.6854Z" fill="white"/>
<path d="M128.064 24.0583H133.443C136.071 24.0583 137.722 22.7447 137.722 20.5079C137.722 18.9458 136.834 17.8452 135.503 17.4191C136.39 17.0641 137.313 16.2475 137.313 14.6676C137.313 12.5018 135.858 11.3125 133.124 11.3125H128.064V24.0583ZM130.248 16.5848V13.2297H132.911C134.366 13.2297 135.165 13.78 135.165 14.8983C135.165 16.0167 134.366 16.5848 132.911 16.5848H130.248ZM130.248 18.502H133.319C134.757 18.502 135.538 19.2476 135.538 20.3127C135.538 21.3955 134.757 22.1411 133.319 22.1411H130.248V18.502Z" fill="white"/>
<path d="M144.455 11.3125L139.626 24.0583H141.88L142.963 21.147H148.467L149.567 24.0583H151.858L147.029 11.3125H144.455ZM145.697 13.8332L147.721 19.1588H143.709L145.697 13.8332Z" fill="white"/>
<path d="M154.668 24.0583H162.941V22.0701H156.941V11.3125H154.668V24.0583Z" fill="white"/>
<ellipse cx="77.5482" cy="17.5911" rx="6.306" ry="6.45051" fill="white"/>
<path fill-rule="evenodd" clip-rule="evenodd" d="M71.2466 24.0416C71.2442 24.0416 71.2422 24.0397 71.2422 24.0373L71.2422 11.145C71.2422 11.1426 71.2442 11.1406 71.2466 11.1406V11.1406C71.249 11.1406 71.251 11.1426 71.251 11.145L71.251 24.0373C71.251 24.0397 71.249 24.0416 71.2466 24.0416V24.0416Z" fill="#1231D5"/>
<path fill-rule="evenodd" clip-rule="evenodd" d="M71.6027 24.0416C71.598 24.0416 71.5942 24.0378 71.5942 24.0331L71.5942 11.1492C71.5942 11.1445 71.598 11.1406 71.6027 11.1406V11.1406C71.6075 11.1406 71.6113 11.1445 71.6113 11.1492L71.6113 24.0331C71.6113 24.0378 71.6075 24.0416 71.6027 24.0416V24.0416Z" fill="#1231D5"/>
<path fill-rule="evenodd" clip-rule="evenodd" d="M71.9473 11.1514C71.9473 11.1454 71.9521 11.1406 71.958 11.1406V11.1406C71.9639 11.1406 71.9688 11.1454 71.9688 11.1514L71.9688 24.0309C71.9688 24.0368 71.9639 24.0416 71.958 24.0416V24.0416C71.9521 24.0416 71.9473 24.0368 71.9473 24.0309L71.9473 11.1514Z" fill="#1231D5"/>
<path fill-rule="evenodd" clip-rule="evenodd" d="M72.3153 24.0416C72.3081 24.0416 72.3024 24.0359 72.3024 24.0288L72.3024 11.1535C72.3024 11.1464 72.3081 11.1406 72.3153 11.1406V11.1406C72.3224 11.1406 72.3281 11.1464 72.3281 11.1535L72.3281 24.0288C72.3281 24.0359 72.3224 24.0416 72.3153 24.0416V24.0416Z" fill="#1231D5"/>
<path fill-rule="evenodd" clip-rule="evenodd" d="M72.6668 24.0416C72.6597 24.0416 72.6539 24.0359 72.6539 24.0288L72.6539 11.1535C72.6539 11.1464 72.6597 11.1406 72.6668 11.1406V11.1406C72.6739 11.1406 72.6797 11.1464 72.6797 11.1535L72.6797 24.0288C72.6797 24.0359 72.6739 24.0416 72.6668 24.0416V24.0416Z" fill="#1231D5"/>
<path fill-rule="evenodd" clip-rule="evenodd" d="M73.0116 24.0416C73.0018 24.0416 72.9939 24.0337 72.9939 24.024L72.9939 11.1583C72.9939 11.1485 73.0018 11.1406 73.0116 11.1406V11.1406C73.0214 11.1406 73.0293 11.1485 73.0293 11.1583L73.0293 15.1367C73.0293 15.1485 73.0247 15.1599 73.0164 15.1683V15.1683C73.0082 15.1768 73.0036 15.1881 73.0036 15.1999L73.0036 16.8495C73.0036 16.8637 73.0081 16.8775 73.0164 16.8889V16.8889C73.0248 16.9003 73.0293 16.914 73.0293 16.9282L73.0293 24.024C73.0293 24.0337 73.0214 24.0416 73.0116 24.0416V24.0416Z" fill="#1231D5"/>
<path fill-rule="evenodd" clip-rule="evenodd" d="M73.3666 24.0416C73.3544 24.0416 73.3445 24.0318 73.3445 24.0196L73.3445 11.1627C73.3445 11.1505 73.3544 11.1406 73.3666 11.1406V11.1406C73.3788 11.1406 73.3887 11.1505 73.3887 11.1627L73.3887 14.1306C73.3887 14.1459 73.3829 14.1607 73.3725 14.172V14.172C73.3621 14.1833 73.3564 14.198 73.3564 14.2134L73.3564 17.4619C73.3564 17.4741 73.3624 17.4855 73.3725 17.4924V17.4924C73.3826 17.4992 73.3887 17.5107 73.3887 17.5229L73.3887 24.0196C73.3887 24.0318 73.3788 24.0416 73.3666 24.0416V24.0416Z" fill="#1231D5"/>
<path fill-rule="evenodd" clip-rule="evenodd" d="M73.7271 24.0416C73.7101 24.0416 73.6963 24.0279 73.6963 24.0109L73.6963 11.1714C73.6963 11.1544 73.7101 11.1406 73.7271 11.1406V11.1406C73.744 11.1406 73.7578 11.1544 73.7578 11.1714L73.7578 13.6155C73.7578 13.6342 73.7489 13.6518 73.7338 13.6628V13.6628C73.7186 13.6739 73.7097 13.6914 73.7097 13.7102L73.7097 17.8271C73.7097 17.844 73.7189 17.8595 73.7338 17.8677V17.8677C73.7486 17.8758 73.7578 17.8913 73.7578 17.9082L73.7578 24.0109C73.7578 24.0279 73.744 24.0416 73.7271 24.0416V24.0416Z" fill="#1231D5"/>
<path fill-rule="evenodd" clip-rule="evenodd" d="M74.0871 24.0416C74.0629 24.0416 74.0433 24.022 74.0433 23.9979L74.0433 11.1481C74.0433 11.144 74.0466 11.1406 74.0507 11.1406V11.1406C74.0548 11.1406 74.0581 11.144 74.0581 11.1481L74.0581 16.9758C74.0581 17.0005 74.0723 17.023 74.0945 17.0337V17.0337C74.1167 17.0444 74.1309 17.067 74.1309 17.0916L74.1309 17.5255C74.1309 17.5528 74.1172 17.5783 74.0945 17.5933V17.5933C74.0718 17.6084 74.0581 17.6339 74.0581 17.6611L74.0581 18.0301C74.0581 18.054 74.0725 18.0756 74.0945 18.0849V18.0849C74.1165 18.0942 74.1309 18.1158 74.1309 18.1397L74.1309 23.9979C74.1309 24.022 74.1113 24.0416 74.0871 24.0416V24.0416Z" fill="#1231D5"/>
<path fill-rule="evenodd" clip-rule="evenodd" d="M74.4352 24.0416C74.4134 24.0416 74.3958 24.024 74.3958 24.0022L74.3958 11.151C74.3958 11.1453 74.4004 11.1406 74.4061 11.1406V11.1406C74.4118 11.1406 74.4165 11.1453 74.4165 11.151L74.4165 16.5205C74.4165 16.5386 74.4283 16.5545 74.4455 16.5597V16.5597C74.4628 16.5649 74.4746 16.5808 74.4746 16.5988L74.4746 17.5877C74.4746 17.6051 74.4625 17.6202 74.4455 17.6241V17.6241C74.4285 17.6279 74.4165 17.643 74.4165 17.6604L74.4165 18.426C74.4165 18.4434 74.4285 18.4585 74.4455 18.4624V18.4624C74.4625 18.4662 74.4746 18.4813 74.4746 18.4988L74.4746 24.0022C74.4746 24.024 74.457 24.0416 74.4352 24.0416V24.0416Z" fill="#1231D5"/>
<path fill-rule="evenodd" clip-rule="evenodd" d="M74.7628 24.0416C74.7387 24.0416 74.7191 24.022 74.7191 23.9979L74.7191 11.152C74.7191 11.1457 74.7241 11.1406 74.7304 11.1406V11.1406C74.7367 11.1406 74.7418 11.1457 74.7418 11.152L74.7418 16.5817C74.7418 16.6029 74.7546 16.6219 74.7742 16.6299V16.6299C74.7938 16.6379 74.8066 16.6569 74.8066 16.6781L74.8066 17.9888C74.8066 18.0115 74.7942 18.0324 74.7742 18.0432V18.0432C74.7542 18.054 74.7418 18.0749 74.7418 18.0977L74.7418 18.7332C74.7418 18.7537 74.7548 18.7718 74.7742 18.7784V18.7784C74.7936 18.785 74.8066 18.8032 74.8066 18.8236L74.8066 23.9979C74.8066 24.022 74.787 24.0416 74.7628 24.0416V24.0416Z" fill="#1231D5"/>
<path fill-rule="evenodd" clip-rule="evenodd" d="M75.1432 24.0416C75.1166 24.0416 75.0951 24.0201 75.0951 23.9935L75.0951 11.1525C75.0951 11.1459 75.1004 11.1406 75.1069 11.1406V11.1406C75.1135 11.1406 75.1188 11.1459 75.1188 11.1525L75.1188 16.6111C75.1188 16.6561 75.1483 16.6959 75.1914 16.7089V16.7089L75.1914 18.5721C75.1914 18.594 75.1764 18.6131 75.1551 18.6182V18.6182C75.1338 18.6234 75.1188 18.6424 75.1188 18.6643L75.1188 19.1238C75.1188 19.1665 75.1494 19.2031 75.1914 19.2107V19.2107L75.1914 23.9935C75.1914 24.0201 75.1698 24.0416 75.1432 24.0416V24.0416Z" fill="#1231D5"/>
<path fill-rule="evenodd" clip-rule="evenodd" d="M75.4982 24.0456C75.4692 24.0456 75.4457 24.022 75.4457 23.993L75.4457 11.1592C75.4457 11.1511 75.4523 11.1445 75.4604 11.1445V11.1445C75.4685 11.1445 75.4751 11.1512 75.4751 11.1594L75.465 12.2315L75.465 12.3105L75.4751 16.5368C75.4752 16.5607 75.4903 16.582 75.5129 16.5899V16.5899C75.5356 16.5978 75.5508 16.6192 75.5508 16.6432L75.5508 18.8131C75.5508 18.8385 75.536 18.8616 75.513 18.8723V18.8723C75.4899 18.883 75.4752 18.9061 75.4752 18.9315L75.4752 19.2017C75.4752 19.2287 75.4896 19.2537 75.513 19.2673V19.2673C75.5364 19.2809 75.5508 19.3059 75.5508 19.333L75.5508 19.6833C75.5508 19.7113 75.5365 19.7373 75.513 19.7523V19.7523C75.4895 19.7674 75.4752 19.7934 75.4752 19.8213L75.4752 20.897C75.4752 20.9232 75.4898 20.9472 75.513 20.9593V20.9593C75.5362 20.9715 75.5508 20.9955 75.5508 21.0217L75.5508 23.993C75.5508 24.022 75.5273 24.0456 75.4982 24.0456V24.0456Z" fill="#1231D5"/>
<path fill-rule="evenodd" clip-rule="evenodd" d="M75.8532 24.0416C75.8218 24.0416 75.7963 24.0162 75.7963 23.9847L75.7963 11.1976C75.7963 11.1661 75.8218 11.1406 75.8532 11.1406V11.1406C75.8847 11.1406 75.9102 11.1661 75.9102 11.1976L75.9102 13.7023V13.7023C75.8614 13.7323 75.8316 13.7855 75.8316 13.8428L75.8316 16.2217C75.8316 16.2486 75.8468 16.2732 75.8709 16.2854V16.2854C75.895 16.2975 75.9102 16.3221 75.9102 16.3491L75.9102 18.7411V18.7411C75.8624 18.7625 75.8316 18.8099 75.8316 18.8622L75.8316 21.3867C75.8316 21.4145 75.8467 21.4401 75.8709 21.4536V21.4536C75.8951 21.4672 75.9102 21.4928 75.9102 21.5205L75.9102 23.9847C75.9102 24.0162 75.8847 24.0416 75.8532 24.0416V24.0416Z" fill="#1231D5"/>
<path fill-rule="evenodd" clip-rule="evenodd" d="M76.2082 24.0416C76.1744 24.0416 76.1469 24.0142 76.1469 23.9803L76.1469 11.2019C76.1469 11.1681 76.1744 11.1406 76.2082 11.1406V11.1406C76.2421 11.1406 76.2695 11.1681 76.2695 11.2019L76.2695 13.1756L76.2695 13.2195L76.2695 13.9907C76.2695 14.0279 76.254 14.0634 76.2266 14.0886V14.0886C76.1993 14.1138 76.1837 14.1492 76.1837 14.1864L76.1837 15.7862C76.1837 15.8166 76.2001 15.8447 76.2266 15.8596V15.8596C76.2531 15.8745 76.2695 15.9026 76.2695 15.933L76.2695 18.7235V18.7235C76.2165 18.7534 76.1837 18.8095 76.1837 18.8703L76.1837 21.7126V21.7126C76.2367 21.7424 76.2695 21.7985 76.2695 21.8593L76.2695 23.9803C76.2695 24.0142 76.2421 24.0416 76.2082 24.0416V24.0416Z" fill="#1231D5"/>
<path fill-rule="evenodd" clip-rule="evenodd" d="M76.5611 24.0416C76.5248 24.0416 76.4954 24.0122 76.4954 23.976L76.4954 11.207C76.4954 11.1703 76.5251 11.1406 76.5617 11.1406V11.1406C76.5979 11.1406 76.6273 11.1695 76.6281 11.2057L76.6684 13.283C76.6694 13.3306 76.6448 13.3752 76.6041 13.3999V13.3999C76.5641 13.4242 76.5397 13.4675 76.5397 13.5143L76.5409 15.5488C76.541 15.5829 76.5568 15.615 76.5839 15.6357V15.6357C76.6109 15.6565 76.6268 15.6887 76.6268 15.7228L76.6268 18.7544C76.6268 18.7839 76.6102 18.811 76.5839 18.8245V18.8245C76.5575 18.838 76.541 18.8651 76.541 18.8946L76.541 23.6242C76.541 23.6555 76.5572 23.6845 76.5839 23.7009V23.7009C76.6105 23.7172 76.6268 23.7463 76.6268 23.7775L76.6268 23.976C76.6268 24.0122 76.5974 24.0416 76.5611 24.0416V24.0416Z" fill="#1231D5"/>
<path fill-rule="evenodd" clip-rule="evenodd" d="M76.9163 24.0416C76.8776 24.0416 76.8462 24.0103 76.8462 23.9716L76.8462 11.2107C76.8462 11.172 76.8776 11.1406 76.9163 11.1406V11.1406C76.955 11.1406 76.9863 11.172 76.9863 11.2107L76.9863 13.4356C76.9863 13.4744 76.9715 13.5117 76.9448 13.5399V13.5399C76.9181 13.5681 76.9032 13.6054 76.9032 13.6443L76.9032 15.2968C76.9032 15.3324 76.9183 15.3662 76.9448 15.39V15.39C76.9712 15.4137 76.9863 15.4476 76.9863 15.4831L76.9863 18.8738C76.9863 18.9063 76.9709 18.9368 76.9448 18.9562V18.9562C76.9187 18.9755 76.9032 19.0061 76.9032 19.0386L76.9032 23.6417C76.9032 23.6732 76.9188 23.7028 76.9448 23.7206V23.7206C76.9708 23.7385 76.9863 23.768 76.9863 23.7995L76.9863 23.9716C76.9863 24.0103 76.955 24.0416 76.9163 24.0416V24.0416Z" fill="#1231D5"/>
<path fill-rule="evenodd" clip-rule="evenodd" d="M77.2713 24.0416C77.2301 24.0416 77.1968 24.0083 77.1968 23.9672L77.1968 11.2151C77.1968 11.174 77.2301 11.1406 77.2713 11.1406V11.1406C77.3124 11.1406 77.3457 11.174 77.3457 11.2151L77.3457 13.5495C77.3457 13.5789 77.3302 13.6062 77.3048 13.6211V13.6211C77.2795 13.6361 77.264 13.6633 77.264 13.6927L77.264 15.0954C77.264 15.1307 77.2788 15.1643 77.3048 15.1881V15.1881C77.3309 15.2118 77.3457 15.2455 77.3457 15.2807L77.3457 18.7315C77.3457 18.7747 77.3313 18.8167 77.3048 18.8508V18.8508C77.2783 18.885 77.264 18.927 77.264 18.9702L77.264 23.356C77.264 23.3846 77.2797 23.4108 77.3048 23.4243V23.4243C77.33 23.4379 77.3457 23.4641 77.3457 23.4927L77.3457 23.9672C77.3457 24.0083 77.3124 24.0416 77.2713 24.0416V24.0416Z" fill="#1231D5"/>
<path fill-rule="evenodd" clip-rule="evenodd" d="M77.6282 24.0416C77.5847 24.0416 77.5494 24.0064 77.5494 23.9628L77.5494 11.2194C77.5494 11.1759 77.5847 11.1406 77.6282 11.1406V11.1406C77.6717 11.1406 77.707 11.1759 77.707 11.2195L77.707 14.0024C77.707 14.0343 77.6912 14.0642 77.6647 14.082V14.082C77.6382 14.0998 77.6223 14.1297 77.6223 14.1616L77.6223 15.0167C77.6223 15.0547 77.6376 15.0912 77.6647 15.1178V15.1178C77.6918 15.1445 77.707 15.1809 77.707 15.219L77.707 19.1565C77.707 19.1875 77.691 19.2163 77.6647 19.2327V19.2327C77.6383 19.2491 77.6223 19.2779 77.6223 19.3089L77.6223 23.1956C77.6223 23.2258 77.6385 23.2536 77.6647 23.2685V23.2685C77.6909 23.2835 77.707 23.3113 77.707 23.3414L77.707 23.9628C77.707 24.0064 77.6717 24.0416 77.6282 24.0416V24.0416Z" fill="#1231D5"/>
<path fill-rule="evenodd" clip-rule="evenodd" d="M77.9832 24.0416C77.9373 24.0416 77.9 24.0044 77.9 23.9584L77.9 23.3102L77.9 23.2093L77.9 19.3512L77.9 19.2459L77.9 11.2238C77.9 11.1779 77.9372 11.1406 77.9832 11.1406V11.1406C78.0292 11.1406 78.0664 11.1779 78.0664 11.2238L78.0664 19.2053C78.0664 19.2365 78.0522 19.2659 78.0278 19.2854V19.2854C78.0034 19.3048 77.9892 19.3342 77.9892 19.3654L77.9892 23.17C77.9892 23.2065 78.003 23.2417 78.0278 23.2685V23.2685C78.0526 23.2953 78.0664 23.3305 78.0664 23.3671L78.0664 23.9584C78.0664 24.0044 78.0292 24.0416 77.9832 24.0416V24.0416Z" fill="#1231D5"/>
<path fill-rule="evenodd" clip-rule="evenodd" d="M78.3382 24.0416C78.2898 24.0416 78.2506 24.0024 78.2506 23.9541L78.2506 23.1566L78.2506 23.0337L78.2506 19.5794L78.2506 19.4565L78.2506 11.2282C78.2506 11.1798 78.2898 11.1406 78.3382 11.1406V11.1406C78.3866 11.1406 78.4258 11.1798 78.4258 11.2282L78.4258 19.4781C78.4258 19.5269 78.4108 19.5745 78.3829 19.6145V19.6145C78.3549 19.6545 78.34 19.7022 78.34 19.7509L78.34 22.857C78.34 22.9033 78.355 22.9484 78.3829 22.9854V22.9854C78.4107 23.0225 78.4258 23.0675 78.4258 23.1139L78.4258 23.9541C78.4258 24.0024 78.3866 24.0416 78.3382 24.0416V24.0416Z" fill="#1231D5"/>
<path fill-rule="evenodd" clip-rule="evenodd" d="M78.6912 24.0416C78.6405 24.0416 78.5993 24.0005 78.5993 23.9497L78.5993 22.924L78.5993 22.7791L78.5993 19.8603L78.5993 19.7331L78.5993 11.2326C78.5993 11.1818 78.6405 11.1406 78.6912 11.1406V11.1406C78.742 11.1406 78.7832 11.1818 78.7832 11.2326L78.7832 19.7406C78.7832 19.7842 78.7697 19.8268 78.7446 19.8625V19.8625C78.7195 19.8982 78.706 19.9408 78.706 19.9845L78.706 22.6268C78.706 22.6657 78.7196 22.7033 78.7446 22.7331V22.7331C78.7695 22.7628 78.7832 22.8004 78.7832 22.8393L78.7832 23.9497C78.7832 24.0005 78.742 24.0416 78.6912 24.0416V24.0416Z" fill="#1231D5"/>
<path fill-rule="evenodd" clip-rule="evenodd" d="M79.0443 24.0416C78.9911 24.0416 78.9479 23.9985 78.9479 23.9453L78.9479 22.5509L78.9479 22.4017L78.9479 20.3168L78.9479 20.1939L78.9479 11.237C78.9479 11.1838 78.9911 11.1406 79.0443 11.1406V11.1406C79.0975 11.1406 79.1406 11.1838 79.1406 11.237L79.1406 20.354C79.1406 20.3811 79.1316 20.4074 79.1149 20.4287V20.4287C79.0982 20.4501 79.0891 20.4764 79.0891 20.5034L79.0891 22.2755C79.0891 22.3002 79.0983 22.3241 79.1149 22.3424V22.3424C79.1315 22.3608 79.1406 22.3846 79.1406 22.4094L79.1406 23.9453C79.1406 23.9985 79.0975 24.0416 79.0443 24.0416V24.0416Z" fill="#1231D5"/>
<path fill-rule="evenodd" clip-rule="evenodd" d="M79.4012 24.0416C79.3456 24.0416 79.3005 23.9966 79.3005 23.9409L79.3005 22.2393L79.3005 22.1164L79.3005 20.7294L79.3005 20.6021L79.3005 11.2413C79.3005 11.1857 79.3456 11.1406 79.4012 11.1406V11.1406C79.4569 11.1406 79.502 11.1857 79.502 11.2413L79.502 20.5628C79.502 20.5885 79.4945 20.6135 79.4805 20.635V20.635C79.4665 20.6565 79.459 20.6816 79.459 20.7072L79.459 22.005C79.459 22.0319 79.4665 22.0583 79.4805 22.0813V22.0813C79.4945 22.1042 79.502 22.1306 79.502 22.1575L79.502 23.9409C79.502 23.9966 79.4569 24.0416 79.4012 24.0416V24.0416Z" fill="#1231D5"/>
<path fill-rule="evenodd" clip-rule="evenodd" d="M79.7543 24.0416C79.6962 24.0416 79.6492 23.9946 79.6492 23.9365L79.6492 21.8135L79.6492 21.7126L79.6492 20.6109L79.6492 20.4792L79.6492 11.2457C79.6492 11.1877 79.6962 11.1406 79.7543 11.1406V11.1406C79.8123 11.1406 79.8594 11.1877 79.8594 11.2457L79.8594 20.642C79.8594 20.6677 79.8535 20.6931 79.8422 20.7162V20.7162C79.8309 20.7393 79.825 20.7647 79.825 20.7904L79.825 21.7106C79.825 21.7349 79.8309 21.759 79.8422 21.7806V21.7806C79.8535 21.8022 79.8594 21.8263 79.8594 21.8506L79.8594 23.9365C79.8594 23.9946 79.8123 24.0416 79.7543 24.0416V24.0416Z" fill="#1231D5"/>
<path fill-rule="evenodd" clip-rule="evenodd" d="M80.0921 24.0397C80.0222 24.0397 79.9655 23.983 79.9655 23.913L79.9655 21.3946L79.9655 21.2936L79.9655 20.8372L79.9655 20.7143L79.9655 12.7734C79.9655 12.7252 79.9918 12.6809 80.0341 12.6579V12.6579C80.0764 12.6349 80.1028 12.5906 80.1028 12.5425L80.1028 11.1885C80.1028 11.153 80.1344 11.1259 80.1694 11.1312V11.1312C80.1978 11.1355 80.2188 11.1598 80.2188 11.1885L80.2188 20.8875C80.2188 20.9123 80.2144 20.9368 80.2059 20.96V20.96C80.1974 20.9833 80.193 21.0078 80.193 21.0326L80.193 21.21C80.193 21.2334 80.1974 21.2565 80.2059 21.2783V21.2783C80.2144 21.3 80.2188 21.3232 80.2188 21.3465L80.2188 23.913C80.2188 23.983 80.1621 24.0397 80.0921 24.0397V24.0397Z" fill="#1231D5"/>
<path fill-rule="evenodd" clip-rule="evenodd" d="M80.4339 24.0416C80.3542 24.0416 80.2896 23.9771 80.2896 23.8974L80.2896 13.9328C80.2896 13.8832 80.3181 13.8379 80.3629 13.8164V13.8164C80.4077 13.795 80.4362 13.7497 80.4362 13.7L80.4362 13.3605C80.4362 13.3123 80.4073 13.2689 80.3629 13.2502V13.2502C80.3185 13.2316 80.2896 13.1882 80.2896 13.14L80.2896 11.2849C80.2896 11.2052 80.3542 11.1406 80.4339 11.1406V11.1406C80.5135 11.1406 80.5781 11.2052 80.5781 11.2849L80.5781 23.8974C80.5781 23.9771 80.5135 24.0416 80.4339 24.0416V24.0416Z" fill="#1231D5"/>
<path fill-rule="evenodd" clip-rule="evenodd" d="M80.7892 24.0416C80.7073 24.0416 80.641 23.9753 80.641 23.8934L80.641 14.0615C80.641 14.0222 80.6649 13.9868 80.7014 13.9723V13.9723C80.7379 13.9577 80.7619 13.9223 80.7619 13.883L80.7619 13.5589C80.7619 13.5152 80.7367 13.4753 80.6971 13.4565V13.4565C80.6576 13.4378 80.6324 13.3979 80.6324 13.3541L80.6324 11.2932C80.6324 11.2089 80.7007 11.1406 80.7849 11.1406V11.1406C80.8692 11.1406 80.9375 11.2089 80.9375 11.2932L80.9375 23.8934C80.9375 23.9753 80.8711 24.0416 80.7892 24.0416V24.0416Z" fill="#1231D5"/>
<path fill-rule="evenodd" clip-rule="evenodd" d="M81.1485 24.0416C81.0666 24.0416 81.0002 23.9752 81.0002 23.8933L81.0002 15.0761C81.0002 15.0354 81.0218 14.9978 81.0571 14.9774V14.9774C81.0923 14.957 81.114 14.9194 81.114 14.8787L81.114 11.2321C81.114 11.1816 81.1549 11.1406 81.2054 11.1406V11.1406C81.2559 11.1406 81.2969 11.1816 81.2969 11.2321L81.2969 23.8933C81.2969 23.9752 81.2305 24.0416 81.1485 24.0416V24.0416Z" fill="#1231D5"/>
<path fill-rule="evenodd" clip-rule="evenodd" d="M81.5035 24.0416C81.4192 24.0416 81.3508 23.9733 81.3508 23.8889L81.3508 17.2904C81.3508 17.2582 81.3638 17.2273 81.387 17.2049V17.2049C81.4101 17.1824 81.4232 17.1516 81.4232 17.1193L81.4232 11.2572C81.4232 11.1928 81.4754 11.1406 81.5397 11.1406V11.1406C81.6041 11.1406 81.6563 11.1928 81.6563 11.2572L81.6563 23.8889C81.6563 23.9733 81.5879 24.0416 81.5035 24.0416V24.0416Z" fill="#1231D5"/>
<path fill-rule="evenodd" clip-rule="evenodd" d="M81.8566 24.0416C81.7698 24.0416 81.6994 23.9713 81.6994 23.8845L81.6994 18.4174C81.6994 18.3889 81.7122 18.3619 81.7343 18.3439V18.3439C81.7563 18.3258 81.7691 18.2988 81.7691 18.2703L81.7691 11.2629C81.7691 11.1954 81.8238 11.1406 81.8914 11.1406V11.1406C81.9589 11.1406 82.0137 11.1954 82.0137 11.2629L82.0137 23.8845C82.0137 23.9713 81.9433 24.0416 81.8566 24.0416V24.0416Z" fill="#1231D5"/>
<path fill-rule="evenodd" clip-rule="evenodd" d="M82.2158 24.0416C82.129 24.0416 82.0586 23.9713 82.0586 23.8844L82.0586 18.7631C82.0586 18.7381 82.0702 18.7146 82.0899 18.6994V18.6994C82.1097 18.6842 82.1212 18.6607 82.1212 18.6357L82.1212 11.271C82.1212 11.2032 82.1749 11.1475 82.2427 11.1452V11.1452C82.314 11.1427 82.373 11.1997 82.373 11.271L82.373 23.8844C82.373 23.9713 82.3027 24.0416 82.2158 24.0416V24.0416Z" fill="#1231D5"/>
<path fill-rule="evenodd" clip-rule="evenodd" d="M82.5685 24.0416C82.4769 24.0416 82.4026 23.9674 82.4026 23.8758L82.4026 18.83C82.4026 18.8047 82.4155 18.7811 82.4368 18.7674V18.7674C82.4581 18.7538 82.471 18.7302 82.471 18.7049L82.471 11.2723C82.471 11.1996 82.53 11.1406 82.6027 11.1406V11.1406C82.6754 11.1406 82.7344 11.1996 82.7344 11.2723L82.7344 23.8758C82.7344 23.9674 82.6601 24.0416 82.5685 24.0416V24.0416Z" fill="#1231D5"/>
<path fill-rule="evenodd" clip-rule="evenodd" d="M82.9235 24.0416C82.8295 24.0416 82.7532 23.9654 82.7532 23.8714L82.7532 21.297L82.7532 18.6005C82.7532 18.57 82.7668 18.5411 82.7903 18.5216V18.5216C82.8138 18.5022 82.8274 18.4733 82.8274 18.4427L82.8274 11.2738C82.8274 11.2002 82.887 11.1406 82.9606 11.1406V11.1406C83.0341 11.1406 83.0938 11.2002 83.0938 11.2738L83.0938 23.8714C83.0938 23.9654 83.0175 24.0416 82.9235 24.0416V24.0416Z" fill="#1231D5"/>
<path fill-rule="evenodd" clip-rule="evenodd" d="M83.2808 24.0416C83.1867 24.0416 83.1105 23.9654 83.1105 23.8713L83.1105 18.2124C83.1105 18.1861 83.1233 18.1615 83.1448 18.1464V18.1464C83.1663 18.1313 83.1791 18.1065 83.179 18.0802L83.1623 11.2899C83.1621 11.2117 83.2242 11.1475 83.3024 11.1451V11.1451C83.3838 11.1427 83.4512 11.208 83.4512 11.2895L83.4512 23.8713C83.4512 23.9654 83.3749 24.0416 83.2808 24.0416V24.0416Z" fill="#1231D5"/>
<path fill-rule="evenodd" clip-rule="evenodd" d="M83.6597 24.0416C83.5537 24.0416 83.4678 23.9557 83.4678 23.8498L83.4678 18.338C83.4678 18.3093 83.4785 18.2816 83.4979 18.2604V18.2604C83.5172 18.2393 83.5279 18.2117 83.528 18.1831L83.5447 11.2937C83.5449 11.2091 83.6135 11.1406 83.6981 11.1406V11.1406C83.7829 11.1406 83.8516 11.2093 83.8516 11.2941L83.8516 23.8498C83.8516 23.9557 83.7657 24.0416 83.6597 24.0416V24.0416Z" fill="#1231D5"/>
<path fill-rule="evenodd" clip-rule="evenodd" d="M84.0123 24.0416C83.9252 24.0416 83.8546 23.9711 83.8546 23.884L83.8546 11.2983C83.8546 11.2112 83.9252 11.1406 84.0123 11.1406V11.1406C84.0993 11.1406 84.1699 11.2112 84.1699 11.2983L84.1699 23.884C84.1699 23.9711 84.0993 24.0416 84.0123 24.0416V24.0416Z" fill="#1231D5"/>
</g>
<defs>
<clipPath id="clip0_823_316">
<rect width="158" height="15" fill="white" transform="translate(10 10)"/>
</clipPath>
</defs>
</svg>
